<?xml version="1.0" standalone="no"?>
<!DOCTYPE svg PUBLIC "-//W3C//DTD SVG 1.1//EN" "http://www.w3.org/Graphics/SVG/1.1/DTD/svg11.dtd" >
<svg xmlns="http://www.w3.org/2000/svg" xmlns:xlink="http://www.w3.org/1999/xlink" version="1.1">
<metadata>
Created by FontForge 20170731 at Wed Dec  5 19:59:20 2018
 By Aleksey,,,
Copyright Copyright 2016 by Noel Leu. All rights reserved.
</metadata>
<defs>
<font id="GTAmericaBoldRegular" horiz-adv-x="20" >
  <font-face 
    font-family="GT America Bold"
    font-weight="500"
    font-stretch="normal"
    units-per-em="1000"
    panose-1="0 0 0 0 0 0 0 0 0 0"
    ascent="800"
    descent="-200"
    x-height="500"
    cap-height="710"
    bbox="-34 -207 1325 731"
    underline-thickness="50"
    underline-position="-200"
    unicode-range="U+0020-FB01"
  />
<missing-glyph horiz-adv-x="472" 
d="M0 700v-700h432v700h-432zM50 50v600h332v-600h-332z" />
    <glyph glyph-name=".notdef" horiz-adv-x="472" 
d="M0 700v-700h432v700h-432zM50 50v600h332v-600h-332z" />
    <glyph glyph-name=".notdef" horiz-adv-x="472" 
d="M0 700v-700h432v700h-432zM50 50v600h332v-600h-332z" />
    <glyph glyph-name=".null" horiz-adv-x="0" 
 />
    <glyph glyph-name="nonmarkingreturn" horiz-adv-x="333" 
 />
    <glyph glyph-name="space" unicode=" " horiz-adv-x="247" 
 />
    <glyph glyph-name="exclam" unicode="!" horiz-adv-x="285" 
d="M228 0h-171v164h171v-164z" />
    <glyph glyph-name="comma" unicode="," horiz-adv-x="285" 
d="M65 -89q42 14 57 33t15 54v2h-80v164h171v-155q0 -64 -30.5 -103.5t-99.5 -60.5z" />
    <glyph glyph-name="hyphen" unicode="-" horiz-adv-x="415" 
d="M371 346v-136h-327v136h327z" />
    <glyph glyph-name="period" unicode="." horiz-adv-x="285" 
d="M228 0h-171v164h171v-164z" />
    <glyph glyph-name="zero" unicode="0" horiz-adv-x="667" 
d="M333 -15q-141 0 -220 95.5t-79 266.5q0 172 79 267.5t220 95.5q142 0 221 -95.5t79 -267.5q0 -171 -79 -266.5t-221 -95.5zM333 110q65 0 99.5 60.5t34.5 176.5t-34.5 177t-99.5 61q-64 0 -98.5 -61t-34.5 -177t34.5 -176.5t98.5 -60.5z" />
    <glyph glyph-name="one" unicode="1" horiz-adv-x="438" 
d="M179 477q-40 -38 -121 -38h-28v145h19q63 2 101 28t59 83h131v-695h-161v477z" />
    <glyph glyph-name="two" unicode="2" horiz-adv-x="587" 
d="M29 118q166 101 251 180q51 47 73 89.5t22 93.5q0 49 -23 75.5t-67 26.5t-69 -26.5t-25 -73.5q0 -20 7 -57l-164 16q-6 27 -6 54q0 98 71.5 156t193.5 58q120 0 187 -57t67 -160q0 -135 -125 -247q-69 -60 -173 -118h304v-128h-524v118z" />
    <glyph glyph-name="three" unicode="3" horiz-adv-x="604" 
d="M299 -15q-125 0 -198.5 61t-75.5 165l163 15q1 -55 31 -86t81 -31q49 0 75 25t26 71q0 93 -120 93h-38v110h36q107 0 107 92q0 42 -24.5 65t-68.5 23q-49 0 -75.5 -32t-26.5 -90l-159 21q0 102 73 162.5t196 60.5q120 0 185.5 -50t65.5 -141q0 -58 -38 -101.5t-101 -57.5
q157 -23 157 -166q0 -96 -73.5 -152.5t-197.5 -56.5z" />
    <glyph glyph-name="four" unicode="4" horiz-adv-x="643" 
d="M504 153v-153h-159v153h-320v109l301 433h178v-424h104v-118h-104zM351 471q0 52 2 77h-2q-10 -25 -40 -71l-99 -146q-28 -41 -46 -60h185v200z" />
    <glyph glyph-name="five" unicode="5" horiz-adv-x="595" 
d="M294 -15q-108 0 -178 51.5t-85 141.5l157 25q8 -43 35.5 -67.5t69.5 -24.5q52 0 80.5 32t28.5 89q0 58 -28 93t-78 35q-83 0 -106 -83l-144 14l43 404h437v-128h-319l-19 -159q48 69 153 69q103 0 162 -64t59 -176q0 -117 -71.5 -184.5t-196.5 -67.5z" />
    <glyph glyph-name="six" unicode="6" horiz-adv-x="607" 
d="M362 469q100 0 157.5 -62.5t57.5 -170.5q0 -111 -72 -181t-186 -70q-134 0 -209.5 92t-75.5 258q0 175 77 275t211 100q214 0 244 -182l-152 -24q-20 85 -95 85q-59 0 -93.5 -53t-36.5 -148q55 81 173 81zM316 107q50 0 78.5 32.5t28.5 89.5q0 55 -30 89t-79 34
q-43 0 -75 -25t-49 -70q7 -70 40 -110t86 -40z" />
    <glyph glyph-name="seven" unicode="7" horiz-adv-x="536" 
d="M117 12q0 146 64 286.5t180 262.5h-339v134h499v-124q-228 -237 -228 -546v-25h-176v12z" />
    <glyph glyph-name="eight" unicode="8" horiz-adv-x="630" 
d="M459 384q73 -28 107 -74t34 -117q0 -94 -78.5 -151t-208.5 -57q-128 0 -205.5 54t-77.5 142q0 127 133 167q-112 52 -112 169q0 87 70.5 140t186.5 53q119 0 189.5 -48t70.5 -129q0 -110 -109 -149zM309 601q-49 0 -76 -22t-27 -62q0 -66 109 -93l40 -11q60 32 60 97
q0 43 -28 67t-78 24zM316 103q55 0 87.5 25.5t32.5 68.5q0 38 -27 62.5t-85 40.5l-54 14q-75 -35 -75 -111q0 -45 33 -72.5t88 -27.5z" />
    <glyph glyph-name="nine" unicode="9" horiz-adv-x="608" 
d="M294 710q137 0 208.5 -89t71.5 -262q0 -178 -70.5 -276t-213.5 -98q-104 0 -169 48t-80 138l152 27q20 -88 105 -88q60 0 90.5 55t31.5 156q-48 -74 -156 -74q-107 0 -170.5 61t-63.5 164q0 106 71.5 172t192.5 66zM294 364q41 0 75.5 25t49.5 66q-3 60 -33.5 98.5
t-89.5 38.5q-51 0 -81.5 -31.5t-30.5 -83.5q0 -50 30.5 -81.5t79.5 -31.5z" />
    <glyph glyph-name="colon" unicode=":" horiz-adv-x="285" 
d="M228 0h-171v164h171v-164z" />
    <glyph glyph-name="semicolon" unicode=";" horiz-adv-x="285" 
d="M65 -89q42 14 57 33t15 54v2h-80v164h171v-155q0 -64 -30.5 -103.5t-99.5 -60.5z" />
    <glyph glyph-name="question" unicode="?" horiz-adv-x="285" 
d="M228 0h-171v164h171v-164z" />
    <glyph glyph-name="A" unicode="A" horiz-adv-x="736" 
d="M499 166h-262l-54 -166h-169l258 710h193l258 -710h-170zM460 285l-65 198q-17 51 -26 100h-2q-7 -40 -26 -100l-65 -198h184z" />
    <glyph glyph-name="B" unicode="B" horiz-adv-x="681" 
d="M502 370q69 -11 107.5 -55.5t38.5 -114.5q0 -88 -62 -144t-179 -56h-333v710h320q117 0 176.5 -50.5t59.5 -132.5q0 -57 -33.5 -99t-94.5 -58zM243 591v-173h106q54 0 79.5 24t25.5 63t-26 62.5t-79 23.5h-106zM360 119q55 0 83.5 26t28.5 69q0 42 -28 67t-80 25h-121
v-187h117z" />
    <glyph glyph-name="C" unicode="C" horiz-adv-x="719" 
d="M375 -17q-166 0 -256 100t-90 271q0 169 93.5 271t254.5 102q134 0 217 -68.5t97 -186.5l-171 -30q-8 71 -46 110t-101 39q-80 0 -125.5 -63.5t-45.5 -172.5q0 -107 46.5 -171t129.5 -64q59 0 97 38.5t49 107.5l171 -37q-26 -115 -108.5 -180.5t-211.5 -65.5z" />
    <glyph glyph-name="D" unicode="D" horiz-adv-x="737" 
d="M74 710h283q159 0 255 -97t96 -254q0 -161 -96.5 -260t-256.5 -99h-281v710zM348 124q87 0 136.5 67.5t49.5 167.5q0 101 -48 164t-136 63h-107v-462h105z" />
    <glyph glyph-name="E" unicode="E" horiz-adv-x="616" 
d="M567 125v-125h-493v710h486v-125h-317v-160h300v-124h-300v-176h324z" />
    <glyph glyph-name="F" unicode="F" horiz-adv-x="587" 
d="M243 582v-164h299v-126h-299v-292h-169v710h486v-128h-317z" />
    <glyph glyph-name="G" unicode="G" horiz-adv-x="745" 
d="M344 -17q-146 0 -230.5 100.5t-84.5 270.5q0 169 95 271t257 102q133 0 212 -61.5t97 -156.5l-167 -31q-10 54 -45.5 88t-97.5 34q-84 0 -131 -65.5t-47 -178.5q0 -114 46 -178.5t134 -64.5q74 0 115.5 46t41.5 100v15h-175v121h329v-395h-120l-7 104q-27 -57 -84.5 -89
t-137.5 -32z" />
    <glyph glyph-name="H" unicode="H" horiz-adv-x="759" 
d="M685 0h-169v295h-273v-295h-169v710h169v-285h273v285h169v-710z" />
    <glyph glyph-name="I" unicode="I" horiz-adv-x="317" 
d="M74 0v710h169v-710h-169z" />
    <glyph glyph-name="J" unicode="J" horiz-adv-x="419" 
d="M357 210q0 -112 -62 -167t-173 -55q-66 0 -105 9v137q35 -5 68 -5q103 0 103 114v467h169v-500z" />
    <glyph glyph-name="K" unicode="K" horiz-adv-x="714" 
d="M324 303l-81 -94v-209h-169v710h169v-305l251 305h193l-249 -288l263 -422h-192z" />
    <glyph glyph-name="L" unicode="L" horiz-adv-x="548" 
d="M74 710h169v-573h288v-137h-457v710z" />
    <glyph glyph-name="M" unicode="M" horiz-adv-x="908" 
d="M74 710h232l131 -435q11 -38 17 -86h2q5 43 18 88l125 433h235v-710h-154v484q0 44 4 80h-3q-3 -31 -15 -69l-143 -495h-142l-149 495q-11 30 -15 68h-3q4 -48 4 -79v-484h-144v710z" />
    <glyph glyph-name="N" unicode="N" horiz-adv-x="762" 
d="M74 710h187l228 -405q32 -60 43 -92h2q0 13 -0.5 43t-0.5 48v406h155v-710h-180l-236 409q-26 45 -42 87h-2q0 -14 0.5 -45t0.5 -49v-402h-155v710z" />
    <glyph glyph-name="O" unicode="O" horiz-adv-x="758" 
d="M379 -17q-160 0 -255 100.5t-95 271.5t95 271.5t255 100.5t255 -100.5t95 -271.5t-95 -271.5t-255 -100.5zM379 115q83 0 129.5 63.5t46.5 176.5t-46.5 176.5t-129.5 63.5t-130 -63.5t-47 -176.5q0 -112 47 -176t130 -64z" />
    <glyph glyph-name="P" unicode="P" horiz-adv-x="657" 
d="M389 710q116 0 185.5 -61t69.5 -162q0 -106 -69.5 -167.5t-189.5 -61.5h-142v-258h-169v710h315zM348 376q56 0 87.5 28t31.5 78t-31 78t-88 28h-105v-212h105z" />
    <glyph glyph-name="Q" unicode="Q" horiz-adv-x="758" 
d="M532 12q40 -37 112 -37q26 0 56 8v-131q-40 -6 -75 -6q-178 0 -232 137h-14q-160 0 -255 100.5t-95 271.5t95 271.5t255 100.5t255 -100.5t95 -271.5q0 -125 -52 -214t-145 -129zM202 355q0 -112 47 -176t130 -64t129.5 63.5t46.5 176.5t-46.5 176.5t-129.5 63.5
t-130 -63.5t-47 -176.5z" />
    <glyph glyph-name="R" unicode="R" horiz-adv-x="693" 
d="M345 272h-102v-272h-169v710h312q131 0 195.5 -58t64.5 -160q0 -68 -36 -120t-103 -75l157 -297h-183zM243 388h109q118 0 118 104q0 99 -118 99h-109v-203z" />
    <glyph glyph-name="S" unicode="S" horiz-adv-x="626" 
d="M310 -17q-112 0 -193 44t-119 121l125 88q62 -122 193 -122q54 0 88 20.5t34 60.5q0 39 -23.5 57.5t-79.5 30.5l-95 20q-196 43 -196 213q0 98 74.5 154.5t202.5 56.5q97 0 171 -35.5t111 -105.5l-110 -93q-27 52 -74.5 80.5t-108.5 28.5q-50 0 -80 -19.5t-30 -53.5
t23.5 -53.5t79.5 -32.5l103 -22q98 -22 146 -71.5t48 -138.5q0 -103 -76.5 -165.5t-213.5 -62.5z" />
    <glyph glyph-name="T" unicode="T" horiz-adv-x="594" 
d="M588 576h-207v-576h-168v576h-206v134h581v-134z" />
    <glyph glyph-name="U" unicode="U" horiz-adv-x="726" 
d="M231 710v-455q0 -63 35 -99t97 -36t97 36t35 99v455h169v-462q0 -122 -80 -193.5t-221 -71.5t-221 71.5t-80 193.5v462h169z" />
    <glyph glyph-name="V" unicode="V" horiz-adv-x="677" 
d="M2 710h180l132 -458q18 -64 22 -98h4q6 44 23 98l132 458h180l-239 -710h-195z" />
    <glyph glyph-name="W" unicode="W" horiz-adv-x="963" 
d="M19 710h170l90 -461q5 -30 7 -59h3q2 31 8 59l100 461h169l101 -461q6 -28 8 -59h3q2 37 6 59l91 461h170l-169 -710h-189l-98 482q-3 17 -5 52h-4q-1 -28 -6 -52l-98 -482h-188z" />
    <glyph glyph-name="X" unicode="X" horiz-adv-x="699" 
d="M244 369l-221 341h187l117 -199q16 -28 21 -45h2q5 17 21 45l120 199h183l-220 -351l237 -359h-190l-129 210q-20 32 -28 53h-2q-9 -26 -27 -55l-123 -208h-183z" />
    <glyph glyph-name="Y" unicode="Y" horiz-adv-x="636" 
d="M233 257l-236 453h178l125 -262q13 -28 17 -52h2q4 24 17 52l124 262h179l-236 -453v-257h-170v257z" />
    <glyph glyph-name="Z" unicode="Z" horiz-adv-x="608" 
d="M377 579h-328v131h521v-122l-340 -458h355v-130h-550v122z" />
    <glyph glyph-name="underscore" unicode="_" horiz-adv-x="415" 
d="M371 346v-136h-327v136h327z" />
    <glyph glyph-name="a" unicode="a" horiz-adv-x="573" 
d="M198 -12q-77 0 -124.5 40.5t-47.5 107.5q0 72 51 108q50 35 157 49l121 17v17q0 82 -74 82q-75 0 -80 -74h-159q6 83 69.5 130t170.5 47q121 0 177 -49.5t56 -157.5v-166q0 -91 14 -139h-156q-6 30 -8 79q-19 -42 -64 -66.5t-103 -24.5zM258 90q46 0 74 28t28 73v40
l-86 -14q-86 -16 -86 -69q0 -26 19 -42t51 -16z" />
    <glyph glyph-name="b" unicode="b" horiz-adv-x="615" 
d="M376 -12q-52 0 -91.5 23.5t-59.5 64.5l-10 -76h-143v725h161v-293q20 37 58.5 58.5t89.5 21.5q92 0 146.5 -71.5t54.5 -190.5t-56 -190.5t-150 -71.5zM322 99q46 0 70.5 39t24.5 112q0 72 -24.5 111.5t-71.5 38.5q-43 0 -67.5 -34.5t-24.5 -94.5v-42q0 -61 24.5 -95.5
t68.5 -34.5z" />
    <glyph glyph-name="c" unicode="c" horiz-adv-x="557" 
d="M292 -12q-119 0 -191 71.5t-72 190.5q0 122 71 192t194 70q98 0 160.5 -46t76.5 -131l-151 -31q-14 90 -90 90q-46 0 -72 -37t-26 -102q0 -71 26 -109.5t73 -38.5q76 0 90 93l150 -33q-13 -82 -78 -130.5t-161 -48.5z" />
    <glyph glyph-name="d" unicode="d" horiz-adv-x="615" 
d="M232 -12q-90 0 -145 71.5t-55 188.5q0 119 57.5 191.5t151.5 72.5q103 0 141 -79v292h160v-725h-152v86q-19 -45 -61 -71.5t-97 -26.5zM295 99q41 0 65 34t24 93v43q0 63 -24 97.5t-67 34.5q-46 0 -71 -39t-25 -111q0 -71 26 -111.5t72 -40.5z" />
    <glyph glyph-name="e" unicode="e" horiz-adv-x="562" 
d="M528 214h-347q1 -51 32.5 -81t82.5 -30q74 0 109 70l118 -54q-30 -62 -90.5 -96.5t-138.5 -34.5q-124 0 -194.5 68t-70.5 189q0 123 68.5 195t185.5 72q118 0 181.5 -65.5t63.5 -184.5v-48zM373 308q0 53 -24 81t-69 28q-46 0 -71.5 -29.5t-27.5 -83.5h192v4z" />
    <glyph glyph-name="f" unicode="f" horiz-adv-x="391" 
d="M373 393h-116v-393h-160v393h-80v107h80v47q0 89 50.5 136.5t145.5 47.5q43 0 80 -9v-115q-28 5 -49 5q-67 0 -67 -69v-43h116v-107z" />
    <glyph glyph-name="g" unicode="g" horiz-adv-x="575" 
d="M561 477q-27 5 -45 5q-41 0 -65 -18q58 -45 58 -119q0 -77 -61.5 -123.5t-167.5 -46.5q-56 0 -103 14q-14 -9 -14 -26q0 -41 68 -41h140q91 0 138 -37.5t47 -108.5q0 -87 -74.5 -135t-213.5 -48q-121 0 -183.5 32.5t-62.5 87.5q0 63 86 90q-69 27 -69 94q0 81 90 114
q-77 47 -77 134q0 76 61.5 121.5t166.5 45.5q66 0 116 -18q28 91 145 91q13 0 20 -1v-107zM280 257q35 0 56.5 24.5t21.5 63.5q0 38 -21.5 61.5t-56.5 23.5t-56 -23.5t-21 -61.5q0 -39 21.5 -63.5t55.5 -24.5zM197 -11q-14 0 -36 2q-20 -19 -20 -47q0 -63 134 -63
q147 0 147 59q0 48 -68 48z" />
    <glyph glyph-name="h" unicode="h" horiz-adv-x="614" 
d="M72 725h161v-314q46 101 159 101q163 0 163 -201v-311h-160v295q0 95 -74 95q-43 0 -65.5 -31t-22.5 -90v-269h-161v725z" />
    <glyph glyph-name="i" unicode="i" horiz-adv-x="295" 
d="M65 718h167v-146h-167v146zM67 500h161v-500h-161v500z" />
    <glyph glyph-name="j" unicode="j" horiz-adv-x="300" 
d="M70 718h167v-146h-167v146zM41 -202q-45 0 -75 6v115q17 -2 43 -2q36 0 50 17.5t14 66.5v499h160v-510q0 -95 -43.5 -143.5t-148.5 -48.5z" />
    <glyph glyph-name="k" unicode="k" horiz-adv-x="594" 
d="M288 202l-55 -59v-143h-161v725h161v-421l162 196h186l-182 -199l187 -301h-179z" />
    <glyph glyph-name="l" unicode="l" horiz-adv-x="305" 
d="M233 0h-161v725h161v-725z" />
    <glyph glyph-name="m" unicode="m" horiz-adv-x="890" 
d="M221 500v-90q47 102 154 102q106 0 142 -103q53 103 160 103q73 0 113.5 -48.5t40.5 -136.5v-327h-160v293q0 97 -67 97q-75 0 -75 -103v-287h-160v294q0 96 -66 96q-36 0 -55.5 -27t-19.5 -77v-286h-161v500h154z" />
    <glyph glyph-name="n" unicode="n" horiz-adv-x="609" 
d="M67 500h154v-96q52 108 166 108q163 0 163 -202v-310h-160v288q0 102 -75 102q-42 0 -64.5 -31t-22.5 -89v-270h-161v500z" />
    <glyph glyph-name="o" unicode="o" horiz-adv-x="577" 
d="M288 -12q-114 0 -186.5 69t-72.5 194t72 193t187 68t187.5 -68t72.5 -193t-72.5 -194t-187.5 -69zM288 99q100 0 100 152q0 150 -100 150q-99 0 -99 -150q0 -75 26 -113.5t73 -38.5z" />
    <glyph glyph-name="p" unicode="p" horiz-adv-x="610" 
d="M67 500h154v-80q48 92 156 92q91 0 145.5 -71t54.5 -190q0 -120 -56.5 -191.5t-149.5 -71.5q-90 0 -143 75v-258h-161v695zM318 99q44 0 69 41t25 111q0 72 -24.5 111t-70.5 39q-44 0 -68.5 -36t-24.5 -103v-28q0 -62 25.5 -98.5t68.5 -36.5z" />
    <glyph glyph-name="q" unicode="q" horiz-adv-x="610" 
d="M382 78q-45 -90 -151 -90q-89 0 -144 71.5t-55 188.5q0 121 58 192.5t153 71.5q108 0 147 -86l13 74h139v-695h-160v273zM292 99q42 0 67 34.5t25 93.5v46q0 60 -24.5 94t-68.5 34q-45 0 -69.5 -39t-24.5 -111q0 -71 25 -111.5t70 -40.5z" />
    <glyph glyph-name="r" unicode="r" horiz-adv-x="412" 
d="M218 371q41 141 167 141h10v-153q-10 1 -30 1q-62 0 -97 -30q-40 -38 -40 -126v-204h-161v500h151v-129z" />
    <glyph glyph-name="s" unicode="s" horiz-adv-x="510" 
d="M263 -12q-83 0 -147.5 30t-99.5 86l92 68q55 -75 158 -75q81 0 81 45q0 20 -15 29.5t-56 15.5l-78 14q-155 26 -155 153q0 72 59 115t161 43q75 0 135 -24.5t91 -68.5l-83 -74q-60 60 -152 60q-70 0 -70 -42q0 -18 12.5 -27t42.5 -14l99 -17q146 -24 146 -152
q0 -76 -58.5 -120.5t-162.5 -44.5z" />
    <glyph glyph-name="t" unicode="t" horiz-adv-x="396" 
d="M5 500h87v120l160 62v-182h119v-107h-119v-194q0 -76 73 -76q21 0 46 5v-127q-53 -10 -91 -10q-98 0 -143 43t-45 127v232h-87v107z" />
    <glyph glyph-name="u" unicode="u" horiz-adv-x="603" 
d="M227 -12q-168 0 -168 188v324h160v-296q0 -94 72 -94q39 0 61.5 28t22.5 76v286h161v-500h-153v91q-18 -48 -60 -75.5t-96 -27.5z" />
    <glyph glyph-name="v" unicode="v" horiz-adv-x="532" 
d="M4 500h165l81 -295q11 -44 15 -71h2q5 38 15 71l81 295h165l-175 -500h-175z" />
    <glyph glyph-name="w" unicode="w" horiz-adv-x="778" 
d="M15 500h153l63 -306q0 -2 3 -20t4 -28h2q4 34 8 48l73 306h136l73 -306q5 -24 8 -48h2q4 34 7 48l62 306h153l-133 -500h-156l-73 283q-9 42 -10 54h-2q-1 -12 -10 -54l-73 -283h-156z" />
    <glyph glyph-name="x" unicode="x" horiz-adv-x="564" 
d="M190 260l-170 240h178l61 -100q19 -31 24 -51h2q7 24 25 51l59 100h169l-167 -238l184 -262h-179l-73 114q-22 33 -26 52h-2q-6 -18 -27 -52l-74 -114h-165z" />
    <glyph glyph-name="y" unicode="y" horiz-adv-x="538" 
d="M102 -200q-27 0 -66 6v117q31 -5 49 -5q83 0 103 64l7 21l-191 497h174l88 -304q8 -29 11 -58h3q1 19 12 58l81 304h161l-179 -522q-33 -96 -92.5 -137t-160.5 -41z" />
    <glyph glyph-name="z" unicode="z" horiz-adv-x="482" 
d="M260 387h-226v113h413v-91l-231 -294h246v-115h-440v94z" />
    <glyph glyph-name="Agrave" unicode="&#xc0;" horiz-adv-x="736" 
d="M499 166h-262l-54 -166h-169l258 710h193l258 -710h-170zM460 285l-65 198q-17 51 -26 100h-2q-7 -40 -26 -100l-65 -198h184z" />
    <glyph glyph-name="Aacute" unicode="&#xc1;" horiz-adv-x="736" 
d="M499 166h-262l-54 -166h-169l258 710h193l258 -710h-170zM460 285l-65 198q-17 51 -26 100h-2q-7 -40 -26 -100l-65 -198h184z" />
    <glyph glyph-name="Acircumflex" unicode="&#xc2;" horiz-adv-x="736" 
d="M499 166h-262l-54 -166h-169l258 710h193l258 -710h-170zM460 285l-65 198q-17 51 -26 100h-2q-7 -40 -26 -100l-65 -198h184z" />
    <glyph glyph-name="Atilde" unicode="&#xc3;" horiz-adv-x="736" 
d="M499 166h-262l-54 -166h-169l258 710h193l258 -710h-170zM460 285l-65 198q-17 51 -26 100h-2q-7 -40 -26 -100l-65 -198h184z" />
    <glyph glyph-name="Adieresis" unicode="&#xc4;" horiz-adv-x="736" 
d="M499 166h-262l-54 -166h-169l258 710h193l258 -710h-170zM460 285l-65 198q-17 51 -26 100h-2q-7 -40 -26 -100l-65 -198h184z" />
    <glyph glyph-name="Aring" unicode="&#xc5;" horiz-adv-x="736" 
d="M499 166h-262l-54 -166h-169l258 710h193l258 -710h-170zM460 285l-65 198q-17 51 -26 100h-2q-7 -40 -26 -100l-65 -198h184z" />
    <glyph glyph-name="AE" unicode="&#xc6;" horiz-adv-x="1352" 
d="M499 166h-262l-54 -166h-169l258 710h193l258 -710h-170zM1303 125v-125h-493v710h486v-125h-317v-160h300v-124h-300v-176h324zM460 285l-65 198q-17 51 -26 100h-2q-7 -40 -26 -100l-65 -198h184z" />
    <glyph glyph-name="Ccedilla" unicode="&#xc7;" horiz-adv-x="719" 
d="M375 -17q-166 0 -256 100t-90 271q0 169 93.5 271t254.5 102q134 0 217 -68.5t97 -186.5l-171 -30q-8 71 -46 110t-101 39q-80 0 -125.5 -63.5t-45.5 -172.5q0 -107 46.5 -171t129.5 -64q59 0 97 38.5t49 107.5l171 -37q-26 -115 -108.5 -180.5t-211.5 -65.5z" />
    <glyph glyph-name="Egrave" unicode="&#xc8;" horiz-adv-x="616" 
d="M567 125v-125h-493v710h486v-125h-317v-160h300v-124h-300v-176h324z" />
    <glyph glyph-name="Eacute" unicode="&#xc9;" horiz-adv-x="616" 
d="M567 125v-125h-493v710h486v-125h-317v-160h300v-124h-300v-176h324z" />
    <glyph glyph-name="Ecircumflex" unicode="&#xca;" horiz-adv-x="616" 
d="M567 125v-125h-493v710h486v-125h-317v-160h300v-124h-300v-176h324z" />
    <glyph glyph-name="Edieresis" unicode="&#xcb;" horiz-adv-x="616" 
d="M567 125v-125h-493v710h486v-125h-317v-160h300v-124h-300v-176h324z" />
    <glyph glyph-name="Igrave" unicode="&#xcc;" horiz-adv-x="317" 
d="M74 0v710h169v-710h-169z" />
    <glyph glyph-name="Iacute" unicode="&#xcd;" horiz-adv-x="317" 
d="M74 0v710h169v-710h-169z" />
    <glyph glyph-name="Icircumflex" unicode="&#xce;" horiz-adv-x="317" 
d="M74 0v710h169v-710h-169z" />
    <glyph glyph-name="Idieresis" unicode="&#xcf;" horiz-adv-x="317" 
d="M74 0v710h169v-710h-169z" />
    <glyph glyph-name="Eth" unicode="&#xd0;" horiz-adv-x="737" 
d="M74 710h283q159 0 255 -97t96 -254q0 -161 -96.5 -260t-256.5 -99h-281v710zM348 124q87 0 136.5 67.5t49.5 167.5q0 101 -48 164t-136 63h-107v-462h105z" />
    <glyph glyph-name="Ntilde" unicode="&#xd1;" horiz-adv-x="762" 
d="M74 710h187l228 -405q32 -60 43 -92h2q0 13 -0.5 43t-0.5 48v406h155v-710h-180l-236 409q-26 45 -42 87h-2q0 -14 0.5 -45t0.5 -49v-402h-155v710z" />
    <glyph glyph-name="Ograve" unicode="&#xd2;" horiz-adv-x="758" 
d="M379 -17q-160 0 -255 100.5t-95 271.5t95 271.5t255 100.5t255 -100.5t95 -271.5t-95 -271.5t-255 -100.5zM379 115q83 0 129.5 63.5t46.5 176.5t-46.5 176.5t-129.5 63.5t-130 -63.5t-47 -176.5q0 -112 47 -176t130 -64z" />
    <glyph glyph-name="Oacute" unicode="&#xd3;" horiz-adv-x="758" 
d="M379 -17q-160 0 -255 100.5t-95 271.5t95 271.5t255 100.5t255 -100.5t95 -271.5t-95 -271.5t-255 -100.5zM379 115q83 0 129.5 63.5t46.5 176.5t-46.5 176.5t-129.5 63.5t-130 -63.5t-47 -176.5q0 -112 47 -176t130 -64z" />
    <glyph glyph-name="Ocircumflex" unicode="&#xd4;" horiz-adv-x="758" 
d="M379 -17q-160 0 -255 100.5t-95 271.5t95 271.5t255 100.5t255 -100.5t95 -271.5t-95 -271.5t-255 -100.5zM379 115q83 0 129.5 63.5t46.5 176.5t-46.5 176.5t-129.5 63.5t-130 -63.5t-47 -176.5q0 -112 47 -176t130 -64z" />
    <glyph glyph-name="Otilde" unicode="&#xd5;" horiz-adv-x="758" 
d="M379 -17q-160 0 -255 100.5t-95 271.5t95 271.5t255 100.5t255 -100.5t95 -271.5t-95 -271.5t-255 -100.5zM379 115q83 0 129.5 63.5t46.5 176.5t-46.5 176.5t-129.5 63.5t-130 -63.5t-47 -176.5q0 -112 47 -176t130 -64z" />
    <glyph glyph-name="Odieresis" unicode="&#xd6;" horiz-adv-x="758" 
d="M379 -17q-160 0 -255 100.5t-95 271.5t95 271.5t255 100.5t255 -100.5t95 -271.5t-95 -271.5t-255 -100.5zM379 115q83 0 129.5 63.5t46.5 176.5t-46.5 176.5t-129.5 63.5t-130 -63.5t-47 -176.5q0 -112 47 -176t130 -64z" />
    <glyph glyph-name="Oslash" unicode="&#xd8;" horiz-adv-x="758" 
d="M379 -17q-160 0 -255 100.5t-95 271.5t95 271.5t255 100.5t255 -100.5t95 -271.5t-95 -271.5t-255 -100.5zM379 115q83 0 129.5 63.5t46.5 176.5t-46.5 176.5t-129.5 63.5t-130 -63.5t-47 -176.5q0 -112 47 -176t130 -64z" />
    <glyph glyph-name="Ugrave" unicode="&#xd9;" horiz-adv-x="726" 
d="M231 710v-455q0 -63 35 -99t97 -36t97 36t35 99v455h169v-462q0 -122 -80 -193.5t-221 -71.5t-221 71.5t-80 193.5v462h169z" />
    <glyph glyph-name="Uacute" unicode="&#xda;" horiz-adv-x="726" 
d="M231 710v-455q0 -63 35 -99t97 -36t97 36t35 99v455h169v-462q0 -122 -80 -193.5t-221 -71.5t-221 71.5t-80 193.5v462h169z" />
    <glyph glyph-name="Ucircumflex" unicode="&#xdb;" horiz-adv-x="726" 
d="M231 710v-455q0 -63 35 -99t97 -36t97 36t35 99v455h169v-462q0 -122 -80 -193.5t-221 -71.5t-221 71.5t-80 193.5v462h169z" />
    <glyph glyph-name="Udieresis" unicode="&#xdc;" horiz-adv-x="726" 
d="M231 710v-455q0 -63 35 -99t97 -36t97 36t35 99v455h169v-462q0 -122 -80 -193.5t-221 -71.5t-221 71.5t-80 193.5v462h169z" />
    <glyph glyph-name="Yacute" unicode="&#xdd;" horiz-adv-x="636" 
d="M233 257l-236 453h178l125 -262q13 -28 17 -52h2q4 24 17 52l124 262h179l-236 -453v-257h-170v257z" />
    <glyph glyph-name="Thorn" unicode="&#xde;" horiz-adv-x="657" 
d="M389 710q116 0 185.5 -61t69.5 -162q0 -106 -69.5 -167.5t-189.5 -61.5h-142v-258h-169v710h315zM348 376q56 0 87.5 28t31.5 78t-31 78t-88 28h-105v-212h105z" />
    <glyph glyph-name="germandbls" unicode="&#xdf;" horiz-adv-x="1020" 
d="M263 -12q-83 0 -147.5 30t-99.5 86l92 68q55 -75 158 -75q81 0 81 45q0 20 -15 29.5t-56 15.5l-78 14q-155 26 -155 153q0 72 59 115t161 43q75 0 135 -24.5t91 -68.5l-83 -74q-60 60 -152 60q-70 0 -70 -42q0 -18 12.5 -27t42.5 -14l99 -17q146 -24 146 -152
q0 -76 -58.5 -120.5t-162.5 -44.5zM773 -12q-83 0 -147.5 30t-99.5 86l92 68q55 -75 158 -75q81 0 81 45q0 20 -15 29.5t-56 15.5l-78 14q-155 26 -155 153q0 72 59 115t161 43q75 0 135 -24.5t91 -68.5l-83 -74q-60 60 -152 60q-70 0 -70 -42q0 -18 12.5 -27t42.5 -14
l99 -17q146 -24 146 -152q0 -76 -58.5 -120.5t-162.5 -44.5z" />
    <glyph glyph-name="agrave" unicode="&#xe0;" horiz-adv-x="573" 
d="M198 -12q-77 0 -124.5 40.5t-47.5 107.5q0 72 51 108q50 35 157 49l121 17v17q0 82 -74 82q-75 0 -80 -74h-159q6 83 69.5 130t170.5 47q121 0 177 -49.5t56 -157.5v-166q0 -91 14 -139h-156q-6 30 -8 79q-19 -42 -64 -66.5t-103 -24.5zM258 90q46 0 74 28t28 73v40
l-86 -14q-86 -16 -86 -69q0 -26 19 -42t51 -16z" />
    <glyph glyph-name="aacute" unicode="&#xe1;" horiz-adv-x="573" 
d="M198 -12q-77 0 -124.5 40.5t-47.5 107.5q0 72 51 108q50 35 157 49l121 17v17q0 82 -74 82q-75 0 -80 -74h-159q6 83 69.5 130t170.5 47q121 0 177 -49.5t56 -157.5v-166q0 -91 14 -139h-156q-6 30 -8 79q-19 -42 -64 -66.5t-103 -24.5zM258 90q46 0 74 28t28 73v40
l-86 -14q-86 -16 -86 -69q0 -26 19 -42t51 -16z" />
    <glyph glyph-name="acircumflex" unicode="&#xe2;" horiz-adv-x="573" 
d="M198 -12q-77 0 -124.5 40.5t-47.5 107.5q0 72 51 108q50 35 157 49l121 17v17q0 82 -74 82q-75 0 -80 -74h-159q6 83 69.5 130t170.5 47q121 0 177 -49.5t56 -157.5v-166q0 -91 14 -139h-156q-6 30 -8 79q-19 -42 -64 -66.5t-103 -24.5zM258 90q46 0 74 28t28 73v40
l-86 -14q-86 -16 -86 -69q0 -26 19 -42t51 -16z" />
    <glyph glyph-name="atilde" unicode="&#xe3;" horiz-adv-x="573" 
d="M198 -12q-77 0 -124.5 40.5t-47.5 107.5q0 72 51 108q50 35 157 49l121 17v17q0 82 -74 82q-75 0 -80 -74h-159q6 83 69.5 130t170.5 47q121 0 177 -49.5t56 -157.5v-166q0 -91 14 -139h-156q-6 30 -8 79q-19 -42 -64 -66.5t-103 -24.5zM258 90q46 0 74 28t28 73v40
l-86 -14q-86 -16 -86 -69q0 -26 19 -42t51 -16z" />
    <glyph glyph-name="adieresis" unicode="&#xe4;" horiz-adv-x="573" 
d="M198 -12q-77 0 -124.5 40.5t-47.5 107.5q0 72 51 108q50 35 157 49l121 17v17q0 82 -74 82q-75 0 -80 -74h-159q6 83 69.5 130t170.5 47q121 0 177 -49.5t56 -157.5v-166q0 -91 14 -139h-156q-6 30 -8 79q-19 -42 -64 -66.5t-103 -24.5zM258 90q46 0 74 28t28 73v40
l-86 -14q-86 -16 -86 -69q0 -26 19 -42t51 -16z" />
    <glyph glyph-name="aring" unicode="&#xe5;" horiz-adv-x="573" 
d="M198 -12q-77 0 -124.5 40.5t-47.5 107.5q0 72 51 108q50 35 157 49l121 17v17q0 82 -74 82q-75 0 -80 -74h-159q6 83 69.5 130t170.5 47q121 0 177 -49.5t56 -157.5v-166q0 -91 14 -139h-156q-6 30 -8 79q-19 -42 -64 -66.5t-103 -24.5zM258 90q46 0 74 28t28 73v40
l-86 -14q-86 -16 -86 -69q0 -26 19 -42t51 -16z" />
    <glyph glyph-name="ae" unicode="&#xe6;" horiz-adv-x="1135" 
d="M198 -12q-77 0 -124.5 40.5t-47.5 107.5q0 72 51 108q50 35 157 49l121 17v17q0 82 -74 82q-75 0 -80 -74h-159q6 83 69.5 130t170.5 47q121 0 177 -49.5t56 -157.5v-166q0 -91 14 -139h-156q-6 30 -8 79q-19 -42 -64 -66.5t-103 -24.5zM1101 214h-347q1 -51 32.5 -81
t82.5 -30q74 0 109 70l118 -54q-30 -62 -90.5 -96.5t-138.5 -34.5q-124 0 -194.5 68t-70.5 189q0 123 68.5 195t185.5 72q118 0 181.5 -65.5t63.5 -184.5v-48zM946 308q0 53 -24 81t-69 28q-46 0 -71.5 -29.5t-27.5 -83.5h192v4zM258 90q46 0 74 28t28 73v40l-86 -14
q-86 -16 -86 -69q0 -26 19 -42t51 -16z" />
    <glyph glyph-name="ccedilla" unicode="&#xe7;" horiz-adv-x="557" 
d="M292 -12q-119 0 -191 71.5t-72 190.5q0 122 71 192t194 70q98 0 160.5 -46t76.5 -131l-151 -31q-14 90 -90 90q-46 0 -72 -37t-26 -102q0 -71 26 -109.5t73 -38.5q76 0 90 93l150 -33q-13 -82 -78 -130.5t-161 -48.5z" />
    <glyph glyph-name="egrave" unicode="&#xe8;" horiz-adv-x="562" 
d="M528 214h-347q1 -51 32.5 -81t82.5 -30q74 0 109 70l118 -54q-30 -62 -90.5 -96.5t-138.5 -34.5q-124 0 -194.5 68t-70.5 189q0 123 68.5 195t185.5 72q118 0 181.5 -65.5t63.5 -184.5v-48zM373 308q0 53 -24 81t-69 28q-46 0 -71.5 -29.5t-27.5 -83.5h192v4z" />
    <glyph glyph-name="eacute" unicode="&#xe9;" horiz-adv-x="562" 
d="M528 214h-347q1 -51 32.5 -81t82.5 -30q74 0 109 70l118 -54q-30 -62 -90.5 -96.5t-138.5 -34.5q-124 0 -194.5 68t-70.5 189q0 123 68.5 195t185.5 72q118 0 181.5 -65.5t63.5 -184.5v-48zM373 308q0 53 -24 81t-69 28q-46 0 -71.5 -29.5t-27.5 -83.5h192v4z" />
    <glyph glyph-name="ecircumflex" unicode="&#xea;" horiz-adv-x="562" 
d="M528 214h-347q1 -51 32.5 -81t82.5 -30q74 0 109 70l118 -54q-30 -62 -90.5 -96.5t-138.5 -34.5q-124 0 -194.5 68t-70.5 189q0 123 68.5 195t185.5 72q118 0 181.5 -65.5t63.5 -184.5v-48zM373 308q0 53 -24 81t-69 28q-46 0 -71.5 -29.5t-27.5 -83.5h192v4z" />
    <glyph glyph-name="edieresis" unicode="&#xeb;" horiz-adv-x="562" 
d="M528 214h-347q1 -51 32.5 -81t82.5 -30q74 0 109 70l118 -54q-30 -62 -90.5 -96.5t-138.5 -34.5q-124 0 -194.5 68t-70.5 189q0 123 68.5 195t185.5 72q118 0 181.5 -65.5t63.5 -184.5v-48zM373 308q0 53 -24 81t-69 28q-46 0 -71.5 -29.5t-27.5 -83.5h192v4z" />
    <glyph glyph-name="igrave" unicode="&#xec;" horiz-adv-x="295" 
d="M65 718h167v-146h-167v146zM67 500h161v-500h-161v500z" />
    <glyph glyph-name="iacute" unicode="&#xed;" horiz-adv-x="295" 
d="M65 718h167v-146h-167v146zM67 500h161v-500h-161v500z" />
    <glyph glyph-name="icircumflex" unicode="&#xee;" horiz-adv-x="295" 
d="M65 718h167v-146h-167v146zM67 500h161v-500h-161v500z" />
    <glyph glyph-name="idieresis" unicode="&#xef;" horiz-adv-x="295" 
d="M65 718h167v-146h-167v146zM67 500h161v-500h-161v500z" />
    <glyph glyph-name="ntilde" unicode="&#xf1;" horiz-adv-x="609" 
d="M67 500h154v-96q52 108 166 108q163 0 163 -202v-310h-160v288q0 102 -75 102q-42 0 -64.5 -31t-22.5 -89v-270h-161v500z" />
    <glyph glyph-name="ograve" unicode="&#xf2;" horiz-adv-x="577" 
d="M288 -12q-114 0 -186.5 69t-72.5 194t72 193t187 68t187.5 -68t72.5 -193t-72.5 -194t-187.5 -69zM288 99q100 0 100 152q0 150 -100 150q-99 0 -99 -150q0 -75 26 -113.5t73 -38.5z" />
    <glyph glyph-name="oacute" unicode="&#xf3;" horiz-adv-x="577" 
d="M288 -12q-114 0 -186.5 69t-72.5 194t72 193t187 68t187.5 -68t72.5 -193t-72.5 -194t-187.5 -69zM288 99q100 0 100 152q0 150 -100 150q-99 0 -99 -150q0 -75 26 -113.5t73 -38.5z" />
    <glyph glyph-name="ocircumflex" unicode="&#xf4;" horiz-adv-x="577" 
d="M288 -12q-114 0 -186.5 69t-72.5 194t72 193t187 68t187.5 -68t72.5 -193t-72.5 -194t-187.5 -69zM288 99q100 0 100 152q0 150 -100 150q-99 0 -99 -150q0 -75 26 -113.5t73 -38.5z" />
    <glyph glyph-name="otilde" unicode="&#xf5;" horiz-adv-x="577" 
d="M288 -12q-114 0 -186.5 69t-72.5 194t72 193t187 68t187.5 -68t72.5 -193t-72.5 -194t-187.5 -69zM288 99q100 0 100 152q0 150 -100 150q-99 0 -99 -150q0 -75 26 -113.5t73 -38.5z" />
    <glyph glyph-name="odieresis" unicode="&#xf6;" horiz-adv-x="577" 
d="M288 -12q-114 0 -186.5 69t-72.5 194t72 193t187 68t187.5 -68t72.5 -193t-72.5 -194t-187.5 -69zM288 99q100 0 100 152q0 150 -100 150q-99 0 -99 -150q0 -75 26 -113.5t73 -38.5z" />
    <glyph glyph-name="oslash" unicode="&#xf8;" horiz-adv-x="577" 
d="M288 -12q-114 0 -186.5 69t-72.5 194t72 193t187 68t187.5 -68t72.5 -193t-72.5 -194t-187.5 -69zM288 99q100 0 100 152q0 150 -100 150q-99 0 -99 -150q0 -75 26 -113.5t73 -38.5z" />
    <glyph glyph-name="ugrave" unicode="&#xf9;" horiz-adv-x="603" 
d="M227 -12q-168 0 -168 188v324h160v-296q0 -94 72 -94q39 0 61.5 28t22.5 76v286h161v-500h-153v91q-18 -48 -60 -75.5t-96 -27.5z" />
    <glyph glyph-name="uacute" unicode="&#xfa;" horiz-adv-x="603" 
d="M227 -12q-168 0 -168 188v324h160v-296q0 -94 72 -94q39 0 61.5 28t22.5 76v286h161v-500h-153v91q-18 -48 -60 -75.5t-96 -27.5z" />
    <glyph glyph-name="ucircumflex" unicode="&#xfb;" horiz-adv-x="603" 
d="M227 -12q-168 0 -168 188v324h160v-296q0 -94 72 -94q39 0 61.5 28t22.5 76v286h161v-500h-153v91q-18 -48 -60 -75.5t-96 -27.5z" />
    <glyph glyph-name="udieresis" unicode="&#xfc;" horiz-adv-x="603" 
d="M227 -12q-168 0 -168 188v324h160v-296q0 -94 72 -94q39 0 61.5 28t22.5 76v286h161v-500h-153v91q-18 -48 -60 -75.5t-96 -27.5z" />
    <glyph glyph-name="yacute" unicode="&#xfd;" horiz-adv-x="538" 
d="M102 -200q-27 0 -66 6v117q31 -5 49 -5q83 0 103 64l7 21l-191 497h174l88 -304q8 -29 11 -58h3q1 19 12 58l81 304h161l-179 -522q-33 -96 -92.5 -137t-160.5 -41z" />
    <glyph glyph-name="thorn" unicode="&#xfe;" horiz-adv-x="610" 
d="M67 500h154v-80q48 92 156 92q91 0 145.5 -71t54.5 -190q0 -120 -56.5 -191.5t-149.5 -71.5q-90 0 -143 75v-258h-161v695zM318 99q44 0 69 41t25 111q0 72 -24.5 111t-70.5 39q-44 0 -68.5 -36t-24.5 -103v-28q0 -62 25.5 -98.5t68.5 -36.5z" />
    <glyph glyph-name="ydieresis" unicode="&#xff;" horiz-adv-x="538" 
d="M102 -200q-27 0 -66 6v117q31 -5 49 -5q83 0 103 64l7 21l-191 497h174l88 -304q8 -29 11 -58h3q1 19 12 58l81 304h161l-179 -522q-33 -96 -92.5 -137t-160.5 -41z" />
    <glyph glyph-name="Amacron" unicode="&#x100;" horiz-adv-x="736" 
d="M499 166h-262l-54 -166h-169l258 710h193l258 -710h-170zM460 285l-65 198q-17 51 -26 100h-2q-7 -40 -26 -100l-65 -198h184z" />
    <glyph glyph-name="amacron" unicode="&#x101;" horiz-adv-x="573" 
d="M198 -12q-77 0 -124.5 40.5t-47.5 107.5q0 72 51 108q50 35 157 49l121 17v17q0 82 -74 82q-75 0 -80 -74h-159q6 83 69.5 130t170.5 47q121 0 177 -49.5t56 -157.5v-166q0 -91 14 -139h-156q-6 30 -8 79q-19 -42 -64 -66.5t-103 -24.5zM258 90q46 0 74 28t28 73v40
l-86 -14q-86 -16 -86 -69q0 -26 19 -42t51 -16z" />
    <glyph glyph-name="Abreve" unicode="&#x102;" horiz-adv-x="736" 
d="M499 166h-262l-54 -166h-169l258 710h193l258 -710h-170zM460 285l-65 198q-17 51 -26 100h-2q-7 -40 -26 -100l-65 -198h184z" />
    <glyph glyph-name="abreve" unicode="&#x103;" horiz-adv-x="573" 
d="M198 -12q-77 0 -124.5 40.5t-47.5 107.5q0 72 51 108q50 35 157 49l121 17v17q0 82 -74 82q-75 0 -80 -74h-159q6 83 69.5 130t170.5 47q121 0 177 -49.5t56 -157.5v-166q0 -91 14 -139h-156q-6 30 -8 79q-19 -42 -64 -66.5t-103 -24.5zM258 90q46 0 74 28t28 73v40
l-86 -14q-86 -16 -86 -69q0 -26 19 -42t51 -16z" />
    <glyph glyph-name="Aogonek" unicode="&#x104;" horiz-adv-x="736" 
d="M499 166h-262l-54 -166h-169l258 710h193l258 -710h-170zM460 285l-65 198q-17 51 -26 100h-2q-7 -40 -26 -100l-65 -198h184z" />
    <glyph glyph-name="aogonek" unicode="&#x105;" horiz-adv-x="573" 
d="M198 -12q-77 0 -124.5 40.5t-47.5 107.5q0 72 51 108q50 35 157 49l121 17v17q0 82 -74 82q-75 0 -80 -74h-159q6 83 69.5 130t170.5 47q121 0 177 -49.5t56 -157.5v-166q0 -91 14 -139h-156q-6 30 -8 79q-19 -42 -64 -66.5t-103 -24.5zM258 90q46 0 74 28t28 73v40
l-86 -14q-86 -16 -86 -69q0 -26 19 -42t51 -16z" />
    <glyph glyph-name="Cacute" unicode="&#x106;" horiz-adv-x="719" 
d="M375 -17q-166 0 -256 100t-90 271q0 169 93.5 271t254.5 102q134 0 217 -68.5t97 -186.5l-171 -30q-8 71 -46 110t-101 39q-80 0 -125.5 -63.5t-45.5 -172.5q0 -107 46.5 -171t129.5 -64q59 0 97 38.5t49 107.5l171 -37q-26 -115 -108.5 -180.5t-211.5 -65.5z" />
    <glyph glyph-name="cacute" unicode="&#x107;" horiz-adv-x="557" 
d="M292 -12q-119 0 -191 71.5t-72 190.5q0 122 71 192t194 70q98 0 160.5 -46t76.5 -131l-151 -31q-14 90 -90 90q-46 0 -72 -37t-26 -102q0 -71 26 -109.5t73 -38.5q76 0 90 93l150 -33q-13 -82 -78 -130.5t-161 -48.5z" />
    <glyph glyph-name="Ccircumflex" unicode="&#x108;" horiz-adv-x="719" 
d="M375 -17q-166 0 -256 100t-90 271q0 169 93.5 271t254.5 102q134 0 217 -68.5t97 -186.5l-171 -30q-8 71 -46 110t-101 39q-80 0 -125.5 -63.5t-45.5 -172.5q0 -107 46.5 -171t129.5 -64q59 0 97 38.5t49 107.5l171 -37q-26 -115 -108.5 -180.5t-211.5 -65.5z" />
    <glyph glyph-name="ccircumflex" unicode="&#x109;" horiz-adv-x="557" 
d="M292 -12q-119 0 -191 71.5t-72 190.5q0 122 71 192t194 70q98 0 160.5 -46t76.5 -131l-151 -31q-14 90 -90 90q-46 0 -72 -37t-26 -102q0 -71 26 -109.5t73 -38.5q76 0 90 93l150 -33q-13 -82 -78 -130.5t-161 -48.5z" />
    <glyph glyph-name="Cdotaccent" unicode="&#x10a;" horiz-adv-x="719" 
d="M375 -17q-166 0 -256 100t-90 271q0 169 93.5 271t254.5 102q134 0 217 -68.5t97 -186.5l-171 -30q-8 71 -46 110t-101 39q-80 0 -125.5 -63.5t-45.5 -172.5q0 -107 46.5 -171t129.5 -64q59 0 97 38.5t49 107.5l171 -37q-26 -115 -108.5 -180.5t-211.5 -65.5z" />
    <glyph glyph-name="cdotaccent" unicode="&#x10b;" horiz-adv-x="557" 
d="M292 -12q-119 0 -191 71.5t-72 190.5q0 122 71 192t194 70q98 0 160.5 -46t76.5 -131l-151 -31q-14 90 -90 90q-46 0 -72 -37t-26 -102q0 -71 26 -109.5t73 -38.5q76 0 90 93l150 -33q-13 -82 -78 -130.5t-161 -48.5z" />
    <glyph glyph-name="Ccaron" unicode="&#x10c;" horiz-adv-x="719" 
d="M375 -17q-166 0 -256 100t-90 271q0 169 93.5 271t254.5 102q134 0 217 -68.5t97 -186.5l-171 -30q-8 71 -46 110t-101 39q-80 0 -125.5 -63.5t-45.5 -172.5q0 -107 46.5 -171t129.5 -64q59 0 97 38.5t49 107.5l171 -37q-26 -115 -108.5 -180.5t-211.5 -65.5z" />
    <glyph glyph-name="ccaron" unicode="&#x10d;" horiz-adv-x="557" 
d="M292 -12q-119 0 -191 71.5t-72 190.5q0 122 71 192t194 70q98 0 160.5 -46t76.5 -131l-151 -31q-14 90 -90 90q-46 0 -72 -37t-26 -102q0 -71 26 -109.5t73 -38.5q76 0 90 93l150 -33q-13 -82 -78 -130.5t-161 -48.5z" />
    <glyph glyph-name="Dcaron" unicode="&#x10e;" horiz-adv-x="737" 
d="M74 710h283q159 0 255 -97t96 -254q0 -161 -96.5 -260t-256.5 -99h-281v710zM348 124q87 0 136.5 67.5t49.5 167.5q0 101 -48 164t-136 63h-107v-462h105z" />
    <glyph glyph-name="dcaron" unicode="&#x10f;" horiz-adv-x="615" 
d="M232 -12q-90 0 -145 71.5t-55 188.5q0 119 57.5 191.5t151.5 72.5q103 0 141 -79v292h160v-725h-152v86q-19 -45 -61 -71.5t-97 -26.5zM295 99q41 0 65 34t24 93v43q0 63 -24 97.5t-67 34.5q-46 0 -71 -39t-25 -111q0 -71 26 -111.5t72 -40.5z" />
    <glyph glyph-name="Dcroat" unicode="&#x110;" horiz-adv-x="737" 
d="M74 710h283q159 0 255 -97t96 -254q0 -161 -96.5 -260t-256.5 -99h-281v710zM348 124q87 0 136.5 67.5t49.5 167.5q0 101 -48 164t-136 63h-107v-462h105z" />
    <glyph glyph-name="dcroat" unicode="&#x111;" horiz-adv-x="615" 
d="M232 -12q-90 0 -145 71.5t-55 188.5q0 119 57.5 191.5t151.5 72.5q103 0 141 -79v292h160v-725h-152v86q-19 -45 -61 -71.5t-97 -26.5zM295 99q41 0 65 34t24 93v43q0 63 -24 97.5t-67 34.5q-46 0 -71 -39t-25 -111q0 -71 26 -111.5t72 -40.5z" />
    <glyph glyph-name="Emacron" unicode="&#x112;" horiz-adv-x="616" 
d="M567 125v-125h-493v710h486v-125h-317v-160h300v-124h-300v-176h324z" />
    <glyph glyph-name="emacron" unicode="&#x113;" horiz-adv-x="562" 
d="M528 214h-347q1 -51 32.5 -81t82.5 -30q74 0 109 70l118 -54q-30 -62 -90.5 -96.5t-138.5 -34.5q-124 0 -194.5 68t-70.5 189q0 123 68.5 195t185.5 72q118 0 181.5 -65.5t63.5 -184.5v-48zM373 308q0 53 -24 81t-69 28q-46 0 -71.5 -29.5t-27.5 -83.5h192v4z" />
    <glyph glyph-name="Ebreve" unicode="&#x114;" horiz-adv-x="616" 
d="M567 125v-125h-493v710h486v-125h-317v-160h300v-124h-300v-176h324z" />
    <glyph glyph-name="ebreve" unicode="&#x115;" horiz-adv-x="562" 
d="M528 214h-347q1 -51 32.5 -81t82.5 -30q74 0 109 70l118 -54q-30 -62 -90.5 -96.5t-138.5 -34.5q-124 0 -194.5 68t-70.5 189q0 123 68.5 195t185.5 72q118 0 181.5 -65.5t63.5 -184.5v-48zM373 308q0 53 -24 81t-69 28q-46 0 -71.5 -29.5t-27.5 -83.5h192v4z" />
    <glyph glyph-name="Edotaccent" unicode="&#x116;" horiz-adv-x="616" 
d="M567 125v-125h-493v710h486v-125h-317v-160h300v-124h-300v-176h324z" />
    <glyph glyph-name="edotaccent" unicode="&#x117;" horiz-adv-x="562" 
d="M528 214h-347q1 -51 32.5 -81t82.5 -30q74 0 109 70l118 -54q-30 -62 -90.5 -96.5t-138.5 -34.5q-124 0 -194.5 68t-70.5 189q0 123 68.5 195t185.5 72q118 0 181.5 -65.5t63.5 -184.5v-48zM373 308q0 53 -24 81t-69 28q-46 0 -71.5 -29.5t-27.5 -83.5h192v4z" />
    <glyph glyph-name="Eogonek" unicode="&#x118;" horiz-adv-x="616" 
d="M567 125v-125h-493v710h486v-125h-317v-160h300v-124h-300v-176h324z" />
    <glyph glyph-name="eogonek" unicode="&#x119;" horiz-adv-x="562" 
d="M528 214h-347q1 -51 32.5 -81t82.5 -30q74 0 109 70l118 -54q-30 -62 -90.5 -96.5t-138.5 -34.5q-124 0 -194.5 68t-70.5 189q0 123 68.5 195t185.5 72q118 0 181.5 -65.5t63.5 -184.5v-48zM373 308q0 53 -24 81t-69 28q-46 0 -71.5 -29.5t-27.5 -83.5h192v4z" />
    <glyph glyph-name="Ecaron" unicode="&#x11a;" horiz-adv-x="616" 
d="M567 125v-125h-493v710h486v-125h-317v-160h300v-124h-300v-176h324z" />
    <glyph glyph-name="ecaron" unicode="&#x11b;" horiz-adv-x="562" 
d="M528 214h-347q1 -51 32.5 -81t82.5 -30q74 0 109 70l118 -54q-30 -62 -90.5 -96.5t-138.5 -34.5q-124 0 -194.5 68t-70.5 189q0 123 68.5 195t185.5 72q118 0 181.5 -65.5t63.5 -184.5v-48zM373 308q0 53 -24 81t-69 28q-46 0 -71.5 -29.5t-27.5 -83.5h192v4z" />
    <glyph glyph-name="Gcircumflex" unicode="&#x11c;" horiz-adv-x="745" 
d="M344 -17q-146 0 -230.5 100.5t-84.5 270.5q0 169 95 271t257 102q133 0 212 -61.5t97 -156.5l-167 -31q-10 54 -45.5 88t-97.5 34q-84 0 -131 -65.5t-47 -178.5q0 -114 46 -178.5t134 -64.5q74 0 115.5 46t41.5 100v15h-175v121h329v-395h-120l-7 104q-27 -57 -84.5 -89
t-137.5 -32z" />
    <glyph glyph-name="gcircumflex" unicode="&#x11d;" horiz-adv-x="575" 
d="M561 477q-27 5 -45 5q-41 0 -65 -18q58 -45 58 -119q0 -77 -61.5 -123.5t-167.5 -46.5q-56 0 -103 14q-14 -9 -14 -26q0 -41 68 -41h140q91 0 138 -37.5t47 -108.5q0 -87 -74.5 -135t-213.5 -48q-121 0 -183.5 32.5t-62.5 87.5q0 63 86 90q-69 27 -69 94q0 81 90 114
q-77 47 -77 134q0 76 61.5 121.5t166.5 45.5q66 0 116 -18q28 91 145 91q13 0 20 -1v-107zM280 257q35 0 56.5 24.5t21.5 63.5q0 38 -21.5 61.5t-56.5 23.5t-56 -23.5t-21 -61.5q0 -39 21.5 -63.5t55.5 -24.5zM197 -11q-14 0 -36 2q-20 -19 -20 -47q0 -63 134 -63
q147 0 147 59q0 48 -68 48z" />
    <glyph glyph-name="Gbreve" unicode="&#x11e;" horiz-adv-x="745" 
d="M344 -17q-146 0 -230.5 100.5t-84.5 270.5q0 169 95 271t257 102q133 0 212 -61.5t97 -156.5l-167 -31q-10 54 -45.5 88t-97.5 34q-84 0 -131 -65.5t-47 -178.5q0 -114 46 -178.5t134 -64.5q74 0 115.5 46t41.5 100v15h-175v121h329v-395h-120l-7 104q-27 -57 -84.5 -89
t-137.5 -32z" />
    <glyph glyph-name="gbreve" unicode="&#x11f;" horiz-adv-x="575" 
d="M561 477q-27 5 -45 5q-41 0 -65 -18q58 -45 58 -119q0 -77 -61.5 -123.5t-167.5 -46.5q-56 0 -103 14q-14 -9 -14 -26q0 -41 68 -41h140q91 0 138 -37.5t47 -108.5q0 -87 -74.5 -135t-213.5 -48q-121 0 -183.5 32.5t-62.5 87.5q0 63 86 90q-69 27 -69 94q0 81 90 114
q-77 47 -77 134q0 76 61.5 121.5t166.5 45.5q66 0 116 -18q28 91 145 91q13 0 20 -1v-107zM280 257q35 0 56.5 24.5t21.5 63.5q0 38 -21.5 61.5t-56.5 23.5t-56 -23.5t-21 -61.5q0 -39 21.5 -63.5t55.5 -24.5zM197 -11q-14 0 -36 2q-20 -19 -20 -47q0 -63 134 -63
q147 0 147 59q0 48 -68 48z" />
    <glyph glyph-name="Gdotaccent" unicode="&#x120;" horiz-adv-x="745" 
d="M344 -17q-146 0 -230.5 100.5t-84.5 270.5q0 169 95 271t257 102q133 0 212 -61.5t97 -156.5l-167 -31q-10 54 -45.5 88t-97.5 34q-84 0 -131 -65.5t-47 -178.5q0 -114 46 -178.5t134 -64.5q74 0 115.5 46t41.5 100v15h-175v121h329v-395h-120l-7 104q-27 -57 -84.5 -89
t-137.5 -32z" />
    <glyph glyph-name="gdotaccent" unicode="&#x121;" horiz-adv-x="575" 
d="M561 477q-27 5 -45 5q-41 0 -65 -18q58 -45 58 -119q0 -77 -61.5 -123.5t-167.5 -46.5q-56 0 -103 14q-14 -9 -14 -26q0 -41 68 -41h140q91 0 138 -37.5t47 -108.5q0 -87 -74.5 -135t-213.5 -48q-121 0 -183.5 32.5t-62.5 87.5q0 63 86 90q-69 27 -69 94q0 81 90 114
q-77 47 -77 134q0 76 61.5 121.5t166.5 45.5q66 0 116 -18q28 91 145 91q13 0 20 -1v-107zM280 257q35 0 56.5 24.5t21.5 63.5q0 38 -21.5 61.5t-56.5 23.5t-56 -23.5t-21 -61.5q0 -39 21.5 -63.5t55.5 -24.5zM197 -11q-14 0 -36 2q-20 -19 -20 -47q0 -63 134 -63
q147 0 147 59q0 48 -68 48z" />
    <glyph glyph-name="CapitalLetterGwithce" unicode="&#x122;" horiz-adv-x="745" 
d="M344 -17q-146 0 -230.5 100.5t-84.5 270.5q0 169 95 271t257 102q133 0 212 -61.5t97 -156.5l-167 -31q-10 54 -45.5 88t-97.5 34q-84 0 -131 -65.5t-47 -178.5q0 -114 46 -178.5t134 -64.5q74 0 115.5 46t41.5 100v15h-175v121h329v-395h-120l-7 104q-27 -57 -84.5 -89
t-137.5 -32z" />
    <glyph glyph-name="SmallLetterGwithcedi" unicode="&#x123;" horiz-adv-x="575" 
d="M561 477q-27 5 -45 5q-41 0 -65 -18q58 -45 58 -119q0 -77 -61.5 -123.5t-167.5 -46.5q-56 0 -103 14q-14 -9 -14 -26q0 -41 68 -41h140q91 0 138 -37.5t47 -108.5q0 -87 -74.5 -135t-213.5 -48q-121 0 -183.5 32.5t-62.5 87.5q0 63 86 90q-69 27 -69 94q0 81 90 114
q-77 47 -77 134q0 76 61.5 121.5t166.5 45.5q66 0 116 -18q28 91 145 91q13 0 20 -1v-107zM280 257q35 0 56.5 24.5t21.5 63.5q0 38 -21.5 61.5t-56.5 23.5t-56 -23.5t-21 -61.5q0 -39 21.5 -63.5t55.5 -24.5zM197 -11q-14 0 -36 2q-20 -19 -20 -47q0 -63 134 -63
q147 0 147 59q0 48 -68 48z" />
    <glyph glyph-name="Hcircumflex" unicode="&#x124;" horiz-adv-x="759" 
d="M685 0h-169v295h-273v-295h-169v710h169v-285h273v285h169v-710z" />
    <glyph glyph-name="hcircumflex" unicode="&#x125;" horiz-adv-x="614" 
d="M72 725h161v-314q46 101 159 101q163 0 163 -201v-311h-160v295q0 95 -74 95q-43 0 -65.5 -31t-22.5 -90v-269h-161v725z" />
    <glyph glyph-name="Hbar" unicode="&#x126;" horiz-adv-x="759" 
d="M685 0h-169v295h-273v-295h-169v710h169v-285h273v285h169v-710z" />
    <glyph glyph-name="hbar" unicode="&#x127;" horiz-adv-x="614" 
d="M72 725h161v-314q46 101 159 101q163 0 163 -201v-311h-160v295q0 95 -74 95q-43 0 -65.5 -31t-22.5 -90v-269h-161v725z" />
    <glyph glyph-name="Itilde" unicode="&#x128;" horiz-adv-x="317" 
d="M74 0v710h169v-710h-169z" />
    <glyph glyph-name="itilde" unicode="&#x129;" horiz-adv-x="295" 
d="M65 718h167v-146h-167v146zM67 500h161v-500h-161v500z" />
    <glyph glyph-name="Imacron" unicode="&#x12a;" horiz-adv-x="317" 
d="M74 0v710h169v-710h-169z" />
    <glyph glyph-name="imacron" unicode="&#x12b;" horiz-adv-x="295" 
d="M65 718h167v-146h-167v146zM67 500h161v-500h-161v500z" />
    <glyph glyph-name="Ibreve" unicode="&#x12c;" horiz-adv-x="317" 
d="M74 0v710h169v-710h-169z" />
    <glyph glyph-name="ibreve" unicode="&#x12d;" horiz-adv-x="295" 
d="M65 718h167v-146h-167v146zM67 500h161v-500h-161v500z" />
    <glyph glyph-name="Iogonek" unicode="&#x12e;" horiz-adv-x="317" 
d="M74 0v710h169v-710h-169z" />
    <glyph glyph-name="iogonek" unicode="&#x12f;" horiz-adv-x="295" 
d="M65 718h167v-146h-167v146zM67 500h161v-500h-161v500z" />
    <glyph glyph-name="Idotaccent" unicode="&#x130;" horiz-adv-x="317" 
d="M74 0v710h169v-710h-169z" />
    <glyph glyph-name="dotlessi" unicode="&#x131;" horiz-adv-x="295" 
d="M65 718h167v-146h-167v146zM67 500h161v-500h-161v500z" />
    <glyph glyph-name="IJ" unicode="&#x132;" horiz-adv-x="736" 
d="M74 0v710h169v-710h-169zM674 210q0 -112 -62 -167t-173 -55q-66 0 -105 9v137q35 -5 68 -5q103 0 103 114v467h169v-500z" />
    <glyph glyph-name="ij" unicode="&#x133;" horiz-adv-x="595" 
d="M65 718h167v-146h-167v146zM365 718h167v-146h-167v146zM67 500h161v-500h-161v500zM336 -202q-45 0 -75 6v115q17 -2 43 -2q36 0 50 17.5t14 66.5v499h160v-510q0 -95 -43.5 -143.5t-148.5 -48.5z" />
    <glyph glyph-name="Jcircumflex" unicode="&#x134;" horiz-adv-x="419" 
d="M357 210q0 -112 -62 -167t-173 -55q-66 0 -105 9v137q35 -5 68 -5q103 0 103 114v467h169v-500z" />
    <glyph glyph-name="jcircumflex" unicode="&#x135;" horiz-adv-x="300" 
d="M70 718h167v-146h-167v146zM41 -202q-45 0 -75 6v115q17 -2 43 -2q36 0 50 17.5t14 66.5v499h160v-510q0 -95 -43.5 -143.5t-148.5 -48.5z" />
    <glyph glyph-name="CapitalLetterKwithce" unicode="&#x136;" horiz-adv-x="714" 
d="M324 303l-81 -94v-209h-169v710h169v-305l251 305h193l-249 -288l263 -422h-192z" />
    <glyph glyph-name="SmallLetterKwithcedi" unicode="&#x137;" horiz-adv-x="594" 
d="M288 202l-55 -59v-143h-161v725h161v-421l162 196h186l-182 -199l187 -301h-179z" />
    <glyph glyph-name="kgreenlandic" unicode="&#x138;" horiz-adv-x="594" 
d="M288 202l-55 -59v-143h-161v725h161v-421l162 196h186l-182 -199l187 -301h-179z" />
    <glyph glyph-name="Lacute" unicode="&#x139;" horiz-adv-x="548" 
d="M74 710h169v-573h288v-137h-457v710z" />
    <glyph glyph-name="lacute" unicode="&#x13a;" horiz-adv-x="305" 
d="M233 0h-161v725h161v-725z" />
    <glyph glyph-name="CapitalLetterLwithce" unicode="&#x13b;" horiz-adv-x="548" 
d="M74 710h169v-573h288v-137h-457v710z" />
    <glyph glyph-name="SmallLetterLwithcedi" unicode="&#x13c;" horiz-adv-x="305" 
d="M233 0h-161v725h161v-725z" />
    <glyph glyph-name="Lcaron" unicode="&#x13d;" horiz-adv-x="548" 
d="M74 710h169v-573h288v-137h-457v710z" />
    <glyph glyph-name="lcaron" unicode="&#x13e;" horiz-adv-x="305" 
d="M233 0h-161v725h161v-725z" />
    <glyph glyph-name="Ldot" unicode="&#x13f;" horiz-adv-x="548" 
d="M74 710h169v-573h288v-137h-457v710z" />
    <glyph glyph-name="ldot" unicode="&#x140;" horiz-adv-x="305" 
d="M233 0h-161v725h161v-725z" />
    <glyph glyph-name="Lslash" unicode="&#x141;" horiz-adv-x="548" 
d="M74 710h169v-573h288v-137h-457v710z" />
    <glyph glyph-name="lslash" unicode="&#x142;" horiz-adv-x="305" 
d="M233 0h-161v725h161v-725z" />
    <glyph glyph-name="Nacute" unicode="&#x143;" horiz-adv-x="762" 
d="M74 710h187l228 -405q32 -60 43 -92h2q0 13 -0.5 43t-0.5 48v406h155v-710h-180l-236 409q-26 45 -42 87h-2q0 -14 0.5 -45t0.5 -49v-402h-155v710z" />
    <glyph glyph-name="nacute" unicode="&#x144;" horiz-adv-x="609" 
d="M67 500h154v-96q52 108 166 108q163 0 163 -202v-310h-160v288q0 102 -75 102q-42 0 -64.5 -31t-22.5 -89v-270h-161v500z" />
    <glyph glyph-name="CapitalLetterNwithce" unicode="&#x145;" horiz-adv-x="762" 
d="M74 710h187l228 -405q32 -60 43 -92h2q0 13 -0.5 43t-0.5 48v406h155v-710h-180l-236 409q-26 45 -42 87h-2q0 -14 0.5 -45t0.5 -49v-402h-155v710z" />
    <glyph glyph-name="SmallLetterNwithcedi" unicode="&#x146;" horiz-adv-x="609" 
d="M67 500h154v-96q52 108 166 108q163 0 163 -202v-310h-160v288q0 102 -75 102q-42 0 -64.5 -31t-22.5 -89v-270h-161v500z" />
    <glyph glyph-name="Ncaron" unicode="&#x147;" horiz-adv-x="762" 
d="M74 710h187l228 -405q32 -60 43 -92h2q0 13 -0.5 43t-0.5 48v406h155v-710h-180l-236 409q-26 45 -42 87h-2q0 -14 0.5 -45t0.5 -49v-402h-155v710z" />
    <glyph glyph-name="ncaron" unicode="&#x148;" horiz-adv-x="609" 
d="M67 500h154v-96q52 108 166 108q163 0 163 -202v-310h-160v288q0 102 -75 102q-42 0 -64.5 -31t-22.5 -89v-270h-161v500z" />
    <glyph glyph-name="napostrophe" unicode="&#x149;" horiz-adv-x="609" 
d="M67 500h154v-96q52 108 166 108q163 0 163 -202v-310h-160v288q0 102 -75 102q-42 0 -64.5 -31t-22.5 -89v-270h-161v500z" />
    <glyph glyph-name="Eng" unicode="&#x14a;" horiz-adv-x="762" 
d="M74 710h187l228 -405q32 -60 43 -92h2q0 13 -0.5 43t-0.5 48v406h155v-710h-180l-236 409q-26 45 -42 87h-2q0 -14 0.5 -45t0.5 -49v-402h-155v710z" />
    <glyph glyph-name="eng" unicode="&#x14b;" horiz-adv-x="609" 
d="M67 500h154v-96q52 108 166 108q163 0 163 -202v-310h-160v288q0 102 -75 102q-42 0 -64.5 -31t-22.5 -89v-270h-161v500z" />
    <glyph glyph-name="Omacron" unicode="&#x14c;" horiz-adv-x="758" 
d="M379 -17q-160 0 -255 100.5t-95 271.5t95 271.5t255 100.5t255 -100.5t95 -271.5t-95 -271.5t-255 -100.5zM379 115q83 0 129.5 63.5t46.5 176.5t-46.5 176.5t-129.5 63.5t-130 -63.5t-47 -176.5q0 -112 47 -176t130 -64z" />
    <glyph glyph-name="omacron" unicode="&#x14d;" horiz-adv-x="577" 
d="M288 -12q-114 0 -186.5 69t-72.5 194t72 193t187 68t187.5 -68t72.5 -193t-72.5 -194t-187.5 -69zM288 99q100 0 100 152q0 150 -100 150q-99 0 -99 -150q0 -75 26 -113.5t73 -38.5z" />
    <glyph glyph-name="Obreve" unicode="&#x14e;" horiz-adv-x="758" 
d="M379 -17q-160 0 -255 100.5t-95 271.5t95 271.5t255 100.5t255 -100.5t95 -271.5t-95 -271.5t-255 -100.5zM379 115q83 0 129.5 63.5t46.5 176.5t-46.5 176.5t-129.5 63.5t-130 -63.5t-47 -176.5q0 -112 47 -176t130 -64z" />
    <glyph glyph-name="obreve" unicode="&#x14f;" horiz-adv-x="577" 
d="M288 -12q-114 0 -186.5 69t-72.5 194t72 193t187 68t187.5 -68t72.5 -193t-72.5 -194t-187.5 -69zM288 99q100 0 100 152q0 150 -100 150q-99 0 -99 -150q0 -75 26 -113.5t73 -38.5z" />
    <glyph glyph-name="Ohungarumlaut" unicode="&#x150;" horiz-adv-x="758" 
d="M379 -17q-160 0 -255 100.5t-95 271.5t95 271.5t255 100.5t255 -100.5t95 -271.5t-95 -271.5t-255 -100.5zM379 115q83 0 129.5 63.5t46.5 176.5t-46.5 176.5t-129.5 63.5t-130 -63.5t-47 -176.5q0 -112 47 -176t130 -64z" />
    <glyph glyph-name="ohungarumlaut" unicode="&#x151;" horiz-adv-x="577" 
d="M288 -12q-114 0 -186.5 69t-72.5 194t72 193t187 68t187.5 -68t72.5 -193t-72.5 -194t-187.5 -69zM288 99q100 0 100 152q0 150 -100 150q-99 0 -99 -150q0 -75 26 -113.5t73 -38.5z" />
    <glyph glyph-name="OE" unicode="&#x152;" horiz-adv-x="1374" 
d="M379 -17q-160 0 -255 100.5t-95 271.5t95 271.5t255 100.5t255 -100.5t95 -271.5t-95 -271.5t-255 -100.5zM1325 125v-125h-493v710h486v-125h-317v-160h300v-124h-300v-176h324zM379 115q83 0 129.5 63.5t46.5 176.5t-46.5 176.5t-129.5 63.5t-130 -63.5t-47 -176.5
q0 -112 47 -176t130 -64z" />
    <glyph glyph-name="oe" unicode="&#x153;" horiz-adv-x="1139" 
d="M288 -12q-114 0 -186.5 69t-72.5 194t72 193t187 68t187.5 -68t72.5 -193t-72.5 -194t-187.5 -69zM1105 214h-347q1 -51 32.5 -81t82.5 -30q74 0 109 70l118 -54q-30 -62 -90.5 -96.5t-138.5 -34.5q-124 0 -194.5 68t-70.5 189q0 123 68.5 195t185.5 72
q118 0 181.5 -65.5t63.5 -184.5v-48zM950 308q0 53 -24 81t-69 28q-46 0 -71.5 -29.5t-27.5 -83.5h192v4zM288 99q100 0 100 152q0 150 -100 150q-99 0 -99 -150q0 -75 26 -113.5t73 -38.5z" />
    <glyph glyph-name="Racute" unicode="&#x154;" horiz-adv-x="693" 
d="M345 272h-102v-272h-169v710h312q131 0 195.5 -58t64.5 -160q0 -68 -36 -120t-103 -75l157 -297h-183zM243 388h109q118 0 118 104q0 99 -118 99h-109v-203z" />
    <glyph glyph-name="racute" unicode="&#x155;" horiz-adv-x="412" 
d="M218 371q41 141 167 141h10v-153q-10 1 -30 1q-62 0 -97 -30q-40 -38 -40 -126v-204h-161v500h151v-129z" />
    <glyph glyph-name="CapitalLetterRwithce" unicode="&#x156;" horiz-adv-x="693" 
d="M345 272h-102v-272h-169v710h312q131 0 195.5 -58t64.5 -160q0 -68 -36 -120t-103 -75l157 -297h-183zM243 388h109q118 0 118 104q0 99 -118 99h-109v-203z" />
    <glyph glyph-name="SmallLetterRwithcedi" unicode="&#x157;" horiz-adv-x="412" 
d="M218 371q41 141 167 141h10v-153q-10 1 -30 1q-62 0 -97 -30q-40 -38 -40 -126v-204h-161v500h151v-129z" />
    <glyph glyph-name="Rcaron" unicode="&#x158;" horiz-adv-x="693" 
d="M345 272h-102v-272h-169v710h312q131 0 195.5 -58t64.5 -160q0 -68 -36 -120t-103 -75l157 -297h-183zM243 388h109q118 0 118 104q0 99 -118 99h-109v-203z" />
    <glyph glyph-name="rcaron" unicode="&#x159;" horiz-adv-x="412" 
d="M218 371q41 141 167 141h10v-153q-10 1 -30 1q-62 0 -97 -30q-40 -38 -40 -126v-204h-161v500h151v-129z" />
    <glyph glyph-name="Sacute" unicode="&#x15a;" horiz-adv-x="626" 
d="M310 -17q-112 0 -193 44t-119 121l125 88q62 -122 193 -122q54 0 88 20.5t34 60.5q0 39 -23.5 57.5t-79.5 30.5l-95 20q-196 43 -196 213q0 98 74.5 154.5t202.5 56.5q97 0 171 -35.5t111 -105.5l-110 -93q-27 52 -74.5 80.5t-108.5 28.5q-50 0 -80 -19.5t-30 -53.5
t23.5 -53.5t79.5 -32.5l103 -22q98 -22 146 -71.5t48 -138.5q0 -103 -76.5 -165.5t-213.5 -62.5z" />
    <glyph glyph-name="sacute" unicode="&#x15b;" horiz-adv-x="510" 
d="M263 -12q-83 0 -147.5 30t-99.5 86l92 68q55 -75 158 -75q81 0 81 45q0 20 -15 29.5t-56 15.5l-78 14q-155 26 -155 153q0 72 59 115t161 43q75 0 135 -24.5t91 -68.5l-83 -74q-60 60 -152 60q-70 0 -70 -42q0 -18 12.5 -27t42.5 -14l99 -17q146 -24 146 -152
q0 -76 -58.5 -120.5t-162.5 -44.5z" />
    <glyph glyph-name="Scircumflex" unicode="&#x15c;" horiz-adv-x="626" 
d="M310 -17q-112 0 -193 44t-119 121l125 88q62 -122 193 -122q54 0 88 20.5t34 60.5q0 39 -23.5 57.5t-79.5 30.5l-95 20q-196 43 -196 213q0 98 74.5 154.5t202.5 56.5q97 0 171 -35.5t111 -105.5l-110 -93q-27 52 -74.5 80.5t-108.5 28.5q-50 0 -80 -19.5t-30 -53.5
t23.5 -53.5t79.5 -32.5l103 -22q98 -22 146 -71.5t48 -138.5q0 -103 -76.5 -165.5t-213.5 -62.5z" />
    <glyph glyph-name="scircumflex" unicode="&#x15d;" horiz-adv-x="510" 
d="M263 -12q-83 0 -147.5 30t-99.5 86l92 68q55 -75 158 -75q81 0 81 45q0 20 -15 29.5t-56 15.5l-78 14q-155 26 -155 153q0 72 59 115t161 43q75 0 135 -24.5t91 -68.5l-83 -74q-60 60 -152 60q-70 0 -70 -42q0 -18 12.5 -27t42.5 -14l99 -17q146 -24 146 -152
q0 -76 -58.5 -120.5t-162.5 -44.5z" />
    <glyph glyph-name="Scedilla" unicode="&#x15e;" horiz-adv-x="626" 
d="M310 -17q-112 0 -193 44t-119 121l125 88q62 -122 193 -122q54 0 88 20.5t34 60.5q0 39 -23.5 57.5t-79.5 30.5l-95 20q-196 43 -196 213q0 98 74.5 154.5t202.5 56.5q97 0 171 -35.5t111 -105.5l-110 -93q-27 52 -74.5 80.5t-108.5 28.5q-50 0 -80 -19.5t-30 -53.5
t23.5 -53.5t79.5 -32.5l103 -22q98 -22 146 -71.5t48 -138.5q0 -103 -76.5 -165.5t-213.5 -62.5z" />
    <glyph glyph-name="scedilla" unicode="&#x15f;" horiz-adv-x="510" 
d="M263 -12q-83 0 -147.5 30t-99.5 86l92 68q55 -75 158 -75q81 0 81 45q0 20 -15 29.5t-56 15.5l-78 14q-155 26 -155 153q0 72 59 115t161 43q75 0 135 -24.5t91 -68.5l-83 -74q-60 60 -152 60q-70 0 -70 -42q0 -18 12.5 -27t42.5 -14l99 -17q146 -24 146 -152
q0 -76 -58.5 -120.5t-162.5 -44.5z" />
    <glyph glyph-name="Scaron" unicode="&#x160;" horiz-adv-x="626" 
d="M310 -17q-112 0 -193 44t-119 121l125 88q62 -122 193 -122q54 0 88 20.5t34 60.5q0 39 -23.5 57.5t-79.5 30.5l-95 20q-196 43 -196 213q0 98 74.5 154.5t202.5 56.5q97 0 171 -35.5t111 -105.5l-110 -93q-27 52 -74.5 80.5t-108.5 28.5q-50 0 -80 -19.5t-30 -53.5
t23.5 -53.5t79.5 -32.5l103 -22q98 -22 146 -71.5t48 -138.5q0 -103 -76.5 -165.5t-213.5 -62.5z" />
    <glyph glyph-name="scaron" unicode="&#x161;" horiz-adv-x="510" 
d="M263 -12q-83 0 -147.5 30t-99.5 86l92 68q55 -75 158 -75q81 0 81 45q0 20 -15 29.5t-56 15.5l-78 14q-155 26 -155 153q0 72 59 115t161 43q75 0 135 -24.5t91 -68.5l-83 -74q-60 60 -152 60q-70 0 -70 -42q0 -18 12.5 -27t42.5 -14l99 -17q146 -24 146 -152
q0 -76 -58.5 -120.5t-162.5 -44.5z" />
    <glyph glyph-name="CapitalLetterTwithce" unicode="&#x162;" horiz-adv-x="594" 
d="M588 576h-207v-576h-168v576h-206v134h581v-134z" />
    <glyph glyph-name="SmallLetterTwithcedi" unicode="&#x163;" horiz-adv-x="396" 
d="M5 500h87v120l160 62v-182h119v-107h-119v-194q0 -76 73 -76q21 0 46 5v-127q-53 -10 -91 -10q-98 0 -143 43t-45 127v232h-87v107z" />
    <glyph glyph-name="Tcaron" unicode="&#x164;" horiz-adv-x="594" 
d="M588 576h-207v-576h-168v576h-206v134h581v-134z" />
    <glyph glyph-name="tcaron" unicode="&#x165;" horiz-adv-x="396" 
d="M5 500h87v120l160 62v-182h119v-107h-119v-194q0 -76 73 -76q21 0 46 5v-127q-53 -10 -91 -10q-98 0 -143 43t-45 127v232h-87v107z" />
    <glyph glyph-name="Tbar" unicode="&#x166;" horiz-adv-x="594" 
d="M588 576h-207v-576h-168v576h-206v134h581v-134z" />
    <glyph glyph-name="tbar" unicode="&#x167;" horiz-adv-x="396" 
d="M5 500h87v120l160 62v-182h119v-107h-119v-194q0 -76 73 -76q21 0 46 5v-127q-53 -10 -91 -10q-98 0 -143 43t-45 127v232h-87v107z" />
    <glyph glyph-name="Utilde" unicode="&#x168;" horiz-adv-x="726" 
d="M231 710v-455q0 -63 35 -99t97 -36t97 36t35 99v455h169v-462q0 -122 -80 -193.5t-221 -71.5t-221 71.5t-80 193.5v462h169z" />
    <glyph glyph-name="utilde" unicode="&#x169;" horiz-adv-x="603" 
d="M227 -12q-168 0 -168 188v324h160v-296q0 -94 72 -94q39 0 61.5 28t22.5 76v286h161v-500h-153v91q-18 -48 -60 -75.5t-96 -27.5z" />
    <glyph glyph-name="Umacron" unicode="&#x16a;" horiz-adv-x="726" 
d="M231 710v-455q0 -63 35 -99t97 -36t97 36t35 99v455h169v-462q0 -122 -80 -193.5t-221 -71.5t-221 71.5t-80 193.5v462h169z" />
    <glyph glyph-name="umacron" unicode="&#x16b;" horiz-adv-x="603" 
d="M227 -12q-168 0 -168 188v324h160v-296q0 -94 72 -94q39 0 61.5 28t22.5 76v286h161v-500h-153v91q-18 -48 -60 -75.5t-96 -27.5z" />
    <glyph glyph-name="Ubreve" unicode="&#x16c;" horiz-adv-x="726" 
d="M231 710v-455q0 -63 35 -99t97 -36t97 36t35 99v455h169v-462q0 -122 -80 -193.5t-221 -71.5t-221 71.5t-80 193.5v462h169z" />
    <glyph glyph-name="ubreve" unicode="&#x16d;" horiz-adv-x="603" 
d="M227 -12q-168 0 -168 188v324h160v-296q0 -94 72 -94q39 0 61.5 28t22.5 76v286h161v-500h-153v91q-18 -48 -60 -75.5t-96 -27.5z" />
    <glyph glyph-name="Uring" unicode="&#x16e;" horiz-adv-x="726" 
d="M231 710v-455q0 -63 35 -99t97 -36t97 36t35 99v455h169v-462q0 -122 -80 -193.5t-221 -71.5t-221 71.5t-80 193.5v462h169z" />
    <glyph glyph-name="uring" unicode="&#x16f;" horiz-adv-x="603" 
d="M227 -12q-168 0 -168 188v324h160v-296q0 -94 72 -94q39 0 61.5 28t22.5 76v286h161v-500h-153v91q-18 -48 -60 -75.5t-96 -27.5z" />
    <glyph glyph-name="Uhungarumlaut" unicode="&#x170;" horiz-adv-x="726" 
d="M231 710v-455q0 -63 35 -99t97 -36t97 36t35 99v455h169v-462q0 -122 -80 -193.5t-221 -71.5t-221 71.5t-80 193.5v462h169z" />
    <glyph glyph-name="uhungarumlaut" unicode="&#x171;" horiz-adv-x="603" 
d="M227 -12q-168 0 -168 188v324h160v-296q0 -94 72 -94q39 0 61.5 28t22.5 76v286h161v-500h-153v91q-18 -48 -60 -75.5t-96 -27.5z" />
    <glyph glyph-name="Uogonek" unicode="&#x172;" horiz-adv-x="726" 
d="M231 710v-455q0 -63 35 -99t97 -36t97 36t35 99v455h169v-462q0 -122 -80 -193.5t-221 -71.5t-221 71.5t-80 193.5v462h169z" />
    <glyph glyph-name="uogonek" unicode="&#x173;" horiz-adv-x="603" 
d="M227 -12q-168 0 -168 188v324h160v-296q0 -94 72 -94q39 0 61.5 28t22.5 76v286h161v-500h-153v91q-18 -48 -60 -75.5t-96 -27.5z" />
    <glyph glyph-name="Wcircumflex" unicode="&#x174;" horiz-adv-x="963" 
d="M19 710h170l90 -461q5 -30 7 -59h3q2 31 8 59l100 461h169l101 -461q6 -28 8 -59h3q2 37 6 59l91 461h170l-169 -710h-189l-98 482q-3 17 -5 52h-4q-1 -28 -6 -52l-98 -482h-188z" />
    <glyph glyph-name="wcircumflex" unicode="&#x175;" horiz-adv-x="778" 
d="M15 500h153l63 -306q0 -2 3 -20t4 -28h2q4 34 8 48l73 306h136l73 -306q5 -24 8 -48h2q4 34 7 48l62 306h153l-133 -500h-156l-73 283q-9 42 -10 54h-2q-1 -12 -10 -54l-73 -283h-156z" />
    <glyph glyph-name="Ycircumflex" unicode="&#x176;" horiz-adv-x="636" 
d="M233 257l-236 453h178l125 -262q13 -28 17 -52h2q4 24 17 52l124 262h179l-236 -453v-257h-170v257z" />
    <glyph glyph-name="ycircumflex" unicode="&#x177;" horiz-adv-x="538" 
d="M102 -200q-27 0 -66 6v117q31 -5 49 -5q83 0 103 64l7 21l-191 497h174l88 -304q8 -29 11 -58h3q1 19 12 58l81 304h161l-179 -522q-33 -96 -92.5 -137t-160.5 -41z" />
    <glyph glyph-name="Ydieresis" unicode="&#x178;" horiz-adv-x="636" 
d="M233 257l-236 453h178l125 -262q13 -28 17 -52h2q4 24 17 52l124 262h179l-236 -453v-257h-170v257z" />
    <glyph glyph-name="Zacute" unicode="&#x179;" horiz-adv-x="608" 
d="M377 579h-328v131h521v-122l-340 -458h355v-130h-550v122z" />
    <glyph glyph-name="zacute" unicode="&#x17a;" horiz-adv-x="482" 
d="M260 387h-226v113h413v-91l-231 -294h246v-115h-440v94z" />
    <glyph glyph-name="Zdotaccent" unicode="&#x17b;" horiz-adv-x="608" 
d="M377 579h-328v131h521v-122l-340 -458h355v-130h-550v122z" />
    <glyph glyph-name="zdotaccent" unicode="&#x17c;" horiz-adv-x="482" 
d="M260 387h-226v113h413v-91l-231 -294h246v-115h-440v94z" />
    <glyph glyph-name="Zcaron" unicode="&#x17d;" horiz-adv-x="608" 
d="M377 579h-328v131h521v-122l-340 -458h355v-130h-550v122z" />
    <glyph glyph-name="zcaron" unicode="&#x17e;" horiz-adv-x="482" 
d="M260 387h-226v113h413v-91l-231 -294h246v-115h-440v94z" />
    <glyph glyph-name="Aringacute" unicode="&#x1fa;" horiz-adv-x="736" 
d="M499 166h-262l-54 -166h-169l258 710h193l258 -710h-170zM460 285l-65 198q-17 51 -26 100h-2q-7 -40 -26 -100l-65 -198h184z" />
    <glyph glyph-name="aringacute" unicode="&#x1fb;" horiz-adv-x="573" 
d="M198 -12q-77 0 -124.5 40.5t-47.5 107.5q0 72 51 108q50 35 157 49l121 17v17q0 82 -74 82q-75 0 -80 -74h-159q6 83 69.5 130t170.5 47q121 0 177 -49.5t56 -157.5v-166q0 -91 14 -139h-156q-6 30 -8 79q-19 -42 -64 -66.5t-103 -24.5zM258 90q46 0 74 28t28 73v40
l-86 -14q-86 -16 -86 -69q0 -26 19 -42t51 -16z" />
    <glyph glyph-name="AEacute" unicode="&#x1fc;" horiz-adv-x="1352" 
d="M499 166h-262l-54 -166h-169l258 710h193l258 -710h-170zM1303 125v-125h-493v710h486v-125h-317v-160h300v-124h-300v-176h324zM460 285l-65 198q-17 51 -26 100h-2q-7 -40 -26 -100l-65 -198h184z" />
    <glyph glyph-name="aeacute" unicode="&#x1fd;" horiz-adv-x="1135" 
d="M198 -12q-77 0 -124.5 40.5t-47.5 107.5q0 72 51 108q50 35 157 49l121 17v17q0 82 -74 82q-75 0 -80 -74h-159q6 83 69.5 130t170.5 47q121 0 177 -49.5t56 -157.5v-166q0 -91 14 -139h-156q-6 30 -8 79q-19 -42 -64 -66.5t-103 -24.5zM1101 214h-347q1 -51 32.5 -81
t82.5 -30q74 0 109 70l118 -54q-30 -62 -90.5 -96.5t-138.5 -34.5q-124 0 -194.5 68t-70.5 189q0 123 68.5 195t185.5 72q118 0 181.5 -65.5t63.5 -184.5v-48zM946 308q0 53 -24 81t-69 28q-46 0 -71.5 -29.5t-27.5 -83.5h192v4zM258 90q46 0 74 28t28 73v40l-86 -14
q-86 -16 -86 -69q0 -26 19 -42t51 -16z" />
    <glyph glyph-name="Oslashacute" unicode="&#x1fe;" horiz-adv-x="758" 
d="M379 -17q-160 0 -255 100.5t-95 271.5t95 271.5t255 100.5t255 -100.5t95 -271.5t-95 -271.5t-255 -100.5zM379 115q83 0 129.5 63.5t46.5 176.5t-46.5 176.5t-129.5 63.5t-130 -63.5t-47 -176.5q0 -112 47 -176t130 -64z" />
    <glyph glyph-name="oslashacute" unicode="&#x1ff;" horiz-adv-x="577" 
d="M288 -12q-114 0 -186.5 69t-72.5 194t72 193t187 68t187.5 -68t72.5 -193t-72.5 -194t-187.5 -69zM288 99q100 0 100 152q0 150 -100 150q-99 0 -99 -150q0 -75 26 -113.5t73 -38.5z" />
    <glyph glyph-name="CapitalLetterSwithco" unicode="&#x218;" horiz-adv-x="626" 
d="M310 -17q-112 0 -193 44t-119 121l125 88q62 -122 193 -122q54 0 88 20.5t34 60.5q0 39 -23.5 57.5t-79.5 30.5l-95 20q-196 43 -196 213q0 98 74.5 154.5t202.5 56.5q97 0 171 -35.5t111 -105.5l-110 -93q-27 52 -74.5 80.5t-108.5 28.5q-50 0 -80 -19.5t-30 -53.5
t23.5 -53.5t79.5 -32.5l103 -22q98 -22 146 -71.5t48 -138.5q0 -103 -76.5 -165.5t-213.5 -62.5z" />
    <glyph glyph-name="SmallLetterSwithcomm" unicode="&#x219;" horiz-adv-x="510" 
d="M263 -12q-83 0 -147.5 30t-99.5 86l92 68q55 -75 158 -75q81 0 81 45q0 20 -15 29.5t-56 15.5l-78 14q-155 26 -155 153q0 72 59 115t161 43q75 0 135 -24.5t91 -68.5l-83 -74q-60 60 -152 60q-70 0 -70 -42q0 -18 12.5 -27t42.5 -14l99 -17q146 -24 146 -152
q0 -76 -58.5 -120.5t-162.5 -44.5z" />
    <glyph glyph-name="CapitalLetterTwithco" unicode="&#x21a;" horiz-adv-x="594" 
d="M588 576h-207v-576h-168v576h-206v134h581v-134z" />
    <glyph glyph-name="SmallLetterTwithcomm" unicode="&#x21b;" horiz-adv-x="396" 
d="M5 500h87v120l160 62v-182h119v-107h-119v-194q0 -76 73 -76q21 0 46 5v-127q-53 -10 -91 -10q-98 0 -143 43t-45 127v232h-87v107z" />
    <glyph glyph-name="CYRILLICCapitalLette" unicode="&#x401;" 
 />
    <glyph glyph-name="CYRILLICCapitalLette" unicode="&#x403;" 
 />
    <glyph glyph-name="CYRILLICCapitalLette" unicode="&#x407;" 
 />
    <glyph glyph-name="CYRILLICCapitalLette" unicode="&#x409;" 
 />
    <glyph glyph-name="CYRILLICCapitalLette" unicode="&#x40a;" 
 />
    <glyph glyph-name="CYRILLICCapitalLette" unicode="&#x40c;" 
 />
    <glyph glyph-name="CYRILLICCapitalLette" unicode="&#x40e;" 
 />
    <glyph glyph-name="CYRILLICCapitalLette" unicode="&#x419;" 
 />
    <glyph glyph-name="CYRILLICSMALLLETTERS" unicode="&#x439;" 
 />
    <glyph glyph-name="CYRILLICSMALLLETTERI" unicode="&#x451;" 
 />
    <glyph glyph-name="CYRILLICSMALLLETTERG" unicode="&#x453;" 
 />
    <glyph glyph-name="CYRILLICSMALLLETTERY" unicode="&#x457;" 
 />
    <glyph glyph-name="CYRILLICSMALLLETTERL" unicode="&#x459;" 
 />
    <glyph glyph-name="CYRILLICSMALLLETTERN" unicode="&#x45a;" 
 />
    <glyph glyph-name="CYRILLICSMALLLETTERK" unicode="&#x45c;" 
 />
    <glyph glyph-name="CYRILLICSMALLLETTERS" unicode="&#x45e;" 
 />
    <glyph glyph-name="CYRILLICCapitalLette" unicode="&#x490;" 
 />
    <glyph glyph-name="CYRILLICSMALLLETTERG" unicode="&#x491;" 
 />
    <glyph glyph-name="Wgrave" unicode="&#x1e80;" horiz-adv-x="963" 
d="M19 710h170l90 -461q5 -30 7 -59h3q2 31 8 59l100 461h169l101 -461q6 -28 8 -59h3q2 37 6 59l91 461h170l-169 -710h-189l-98 482q-3 17 -5 52h-4q-1 -28 -6 -52l-98 -482h-188z" />
    <glyph glyph-name="wgrave" unicode="&#x1e81;" horiz-adv-x="778" 
d="M15 500h153l63 -306q0 -2 3 -20t4 -28h2q4 34 8 48l73 306h136l73 -306q5 -24 8 -48h2q4 34 7 48l62 306h153l-133 -500h-156l-73 283q-9 42 -10 54h-2q-1 -12 -10 -54l-73 -283h-156z" />
    <glyph glyph-name="Wacute" unicode="&#x1e82;" horiz-adv-x="963" 
d="M19 710h170l90 -461q5 -30 7 -59h3q2 31 8 59l100 461h169l101 -461q6 -28 8 -59h3q2 37 6 59l91 461h170l-169 -710h-189l-98 482q-3 17 -5 52h-4q-1 -28 -6 -52l-98 -482h-188z" />
    <glyph glyph-name="wacute" unicode="&#x1e83;" horiz-adv-x="778" 
d="M15 500h153l63 -306q0 -2 3 -20t4 -28h2q4 34 8 48l73 306h136l73 -306q5 -24 8 -48h2q4 34 7 48l62 306h153l-133 -500h-156l-73 283q-9 42 -10 54h-2q-1 -12 -10 -54l-73 -283h-156z" />
    <glyph glyph-name="Wdieresis" unicode="&#x1e84;" horiz-adv-x="963" 
d="M19 710h170l90 -461q5 -30 7 -59h3q2 31 8 59l100 461h169l101 -461q6 -28 8 -59h3q2 37 6 59l91 461h170l-169 -710h-189l-98 482q-3 17 -5 52h-4q-1 -28 -6 -52l-98 -482h-188z" />
    <glyph glyph-name="wdieresis" unicode="&#x1e85;" horiz-adv-x="778" 
d="M15 500h153l63 -306q0 -2 3 -20t4 -28h2q4 34 8 48l73 306h136l73 -306q5 -24 8 -48h2q4 34 7 48l62 306h153l-133 -500h-156l-73 283q-9 42 -10 54h-2q-1 -12 -10 -54l-73 -283h-156z" />
    <glyph glyph-name="Ygrave" unicode="&#x1ef2;" horiz-adv-x="636" 
d="M233 257l-236 453h178l125 -262q13 -28 17 -52h2q4 24 17 52l124 262h179l-236 -453v-257h-170v257z" />
    <glyph glyph-name="ygrave" unicode="&#x1ef3;" horiz-adv-x="538" 
d="M102 -200q-27 0 -66 6v117q31 -5 49 -5q83 0 103 64l7 21l-191 497h174l88 -304q8 -29 11 -58h3q1 19 12 58l81 304h161l-179 -522q-33 -96 -92.5 -137t-160.5 -41z" />
    <glyph glyph-name="endash" unicode="&#x2013;" horiz-adv-x="415" 
d="M371 346v-136h-327v136h327z" />
    <glyph glyph-name="emdash" unicode="&#x2014;" horiz-adv-x="415" 
d="M371 346v-136h-327v136h327z" />
    <glyph glyph-name="SMALLLIGATUREFF" unicode="&#xfb00;" horiz-adv-x="782" 
d="M373 393h-116v-393h-160v393h-80v107h80v47q0 89 50.5 136.5t145.5 47.5q43 0 80 -9v-115q-28 5 -49 5q-67 0 -67 -69v-43h116v-107zM764 393h-116v-393h-160v393h-80v107h80v47q0 89 50.5 136.5t145.5 47.5q42 0 80 -9v-115q-28 5 -49 5q-67 0 -67 -69v-43h116v-107z
" />
    <glyph glyph-name="SMALLLIGATUREFI" unicode="&#xfb01;" horiz-adv-x="686" 
d="M373 393h-116v-393h-160v393h-80v107h80v47q0 89 50.5 136.5t145.5 47.5q43 0 80 -9v-115q-28 5 -49 5q-67 0 -67 -69v-43h116v-107zM456 718h167v-146h-167v146zM458 500h161v-500h-161v500z" />
  </font>
</defs>
</svg>
